<svg width="1940" height="343" viewBox="0 0 1940 343" fill="none" xmlns="http://www.w3.org/2000/svg">
<g clip-path="url(#clip0_443_857)">
<rect width="1940" height="343" fill="white"/>
<rect x="-3.8999" width="80.3148" height="20.5514" rx="3" fill="#E14646" fill-opacity="0.3"/>
<path d="M3.75297 14V3.81818H7.19332C7.98877 3.81818 8.64171 3.95407 9.15212 4.22585C9.66254 4.49432 10.0404 4.86387 10.2856 5.33452C10.5309 5.80516 10.6535 6.34044 10.6535 6.94034C10.6535 7.54025 10.5309 8.07221 10.2856 8.53622C10.0404 9.00024 9.6642 9.36482 9.15709 9.62997C8.64999 9.89181 8.00203 10.0227 7.2132 10.0227H4.42911V8.90909H7.17343C7.71699 8.90909 8.15449 8.82955 8.48593 8.67045C8.82068 8.51136 9.06263 8.28598 9.21178 7.99432C9.36424 7.69934 9.44047 7.34801 9.44047 6.94034C9.44047 6.53267 9.36424 6.17637 9.21178 5.87145C9.05932 5.56652 8.81571 5.3312 8.48096 5.16548C8.1462 4.99645 7.70373 4.91193 7.15354 4.91193H4.98593V14H3.75297ZM8.54559 9.42614L11.0513 14H9.61945L7.15354 9.42614H8.54559ZM15.6686 14.1591C14.9328 14.1591 14.2981 13.9967 13.7645 13.6719C13.2342 13.3438 12.8249 12.8864 12.5365 12.2997C12.2515 11.7098 12.109 11.0237 12.109 10.2415C12.109 9.45928 12.2515 8.76989 12.5365 8.1733C12.8249 7.57339 13.2259 7.10606 13.7397 6.77131C14.2567 6.43324 14.8599 6.2642 15.5493 6.2642C15.947 6.2642 16.3398 6.33049 16.7276 6.46307C17.1154 6.59564 17.4684 6.81108 17.7865 7.10938C18.1047 7.40436 18.3583 7.79545 18.5472 8.28267C18.7361 8.76989 18.8306 9.36979 18.8306 10.0824V10.5795H12.9442V9.56534H17.6374C17.6374 9.13447 17.5512 8.75 17.3789 8.41193C17.2098 8.07386 16.9679 7.80705 16.653 7.61151C16.3415 7.41596 15.9736 7.31818 15.5493 7.31818C15.082 7.31818 14.6776 7.43419 14.3362 7.66619C13.9982 7.89489 13.738 8.19318 13.5557 8.56108C13.3734 8.92898 13.2823 9.32339 13.2823 9.74432V10.4205C13.2823 10.9972 13.3817 11.486 13.5806 11.8871C13.7827 12.2848 14.0628 12.5881 14.4208 12.7969C14.7787 13.0024 15.1947 13.1051 15.6686 13.1051C15.9769 13.1051 16.2553 13.062 16.5039 12.9759C16.7558 12.8864 16.9728 12.7538 17.1551 12.5781C17.3374 12.3991 17.4783 12.1771 17.5777 11.9119L18.7112 12.2301C18.5919 12.6146 18.3914 12.9527 18.1097 13.2443C17.828 13.5327 17.48 13.758 17.0657 13.9205C16.6514 14.0795 16.1857 14.1591 15.6686 14.1591ZM23.4989 14.1591C22.8625 14.1591 22.3007 13.9983 21.8135 13.6768C21.3263 13.352 20.9451 12.8946 20.6701 12.3047C20.395 11.7114 20.2574 11.0104 20.2574 10.2017C20.2574 9.39962 20.395 8.7036 20.6701 8.11364C20.9451 7.52367 21.328 7.06794 21.8185 6.74645C22.309 6.42495 22.8758 6.2642 23.5188 6.2642C24.0159 6.2642 24.4087 6.34706 24.697 6.51278C24.9887 6.67519 25.2108 6.8608 25.3632 7.0696C25.519 7.27509 25.64 7.44413 25.7262 7.5767H25.8256V3.81818H26.9989V14H25.8654V12.8267H25.7262C25.64 12.9659 25.5174 13.1416 25.3583 13.3537C25.1992 13.5625 24.9721 13.7498 24.6772 13.9155C24.3822 14.0779 23.9894 14.1591 23.4989 14.1591ZM23.658 13.1051C24.1286 13.1051 24.5264 12.9825 24.8512 12.7372C25.176 12.4886 25.4229 12.1456 25.5919 11.7081C25.761 11.2673 25.8455 10.7585 25.8455 10.1818C25.8455 9.61174 25.7626 9.11293 25.5969 8.68537C25.4312 8.2545 25.1859 7.91974 24.8611 7.68111C24.5363 7.43916 24.1353 7.31818 23.658 7.31818C23.1608 7.31818 22.7465 7.44579 22.4151 7.70099C22.087 7.95289 21.84 8.29593 21.6743 8.73011C21.5119 9.16098 21.4307 9.64489 21.4307 10.1818C21.4307 10.7254 21.5136 11.2192 21.6793 11.6634C21.8483 12.1042 22.0969 12.4555 22.425 12.7173C22.7565 12.9759 23.1675 13.1051 23.658 13.1051ZM36.5692 6.36364V7.35795H32.6118V6.36364H36.5692ZM33.7652 4.53409H34.9385V11.8125C34.9385 12.1439 34.9866 12.3925 35.0827 12.5582C35.1821 12.7206 35.3081 12.83 35.4605 12.8864C35.6163 12.9394 35.7804 12.9659 35.9527 12.9659C36.082 12.9659 36.188 12.9593 36.2709 12.946C36.3538 12.9295 36.4201 12.9162 36.4698 12.9062L36.7084 13.9602C36.6289 13.9901 36.5178 14.0199 36.3753 14.0497C36.2328 14.0829 36.0522 14.0994 35.8334 14.0994C35.502 14.0994 35.1772 14.0282 34.859 13.8857C34.5441 13.7431 34.2823 13.526 34.0735 13.2344C33.868 12.9427 33.7652 12.5748 33.7652 12.1307V4.53409ZM40.5813 14.179C40.0974 14.179 39.6582 14.0878 39.2638 13.9055C38.8694 13.7199 38.5562 13.4531 38.3242 13.1051C38.0922 12.7538 37.9762 12.3295 37.9762 11.8324C37.9762 11.3949 38.0623 11.0402 38.2347 10.7685C38.407 10.4934 38.6374 10.2779 38.9257 10.1222C39.2141 9.96638 39.5323 9.85038 39.8803 9.77415C40.2316 9.6946 40.5846 9.63163 40.9392 9.58523C41.4032 9.52557 41.7794 9.48082 42.0678 9.45099C42.3594 9.41785 42.5716 9.36316 42.7041 9.28693C42.84 9.2107 42.908 9.07812 42.908 8.8892V8.84943C42.908 8.3589 42.7737 7.97775 42.5053 7.70597C42.2401 7.43419 41.8374 7.2983 41.2972 7.2983C40.7371 7.2983 40.2979 7.42093 39.9797 7.66619C39.6615 7.91146 39.4378 8.1733 39.3085 8.4517L38.1949 8.05398C38.3938 7.58996 38.6589 7.22869 38.9904 6.97017C39.3251 6.70833 39.6897 6.52604 40.0841 6.4233C40.4818 6.31723 40.8729 6.2642 41.2574 6.2642C41.5027 6.2642 41.7844 6.29403 42.1026 6.35369C42.4241 6.41004 42.734 6.5277 43.0323 6.70668C43.3339 6.88565 43.5841 7.15578 43.783 7.51705C43.9818 7.87831 44.0813 8.36222 44.0813 8.96875V14H42.908V12.9659H42.8483C42.7688 13.1316 42.6362 13.3089 42.4506 13.4979C42.265 13.6868 42.0181 13.8475 41.7098 13.9801C41.4016 14.1127 41.0254 14.179 40.5813 14.179ZM40.7603 13.125C41.2243 13.125 41.6154 13.0339 41.9335 12.8516C42.255 12.6693 42.497 12.4339 42.6594 12.1456C42.8251 11.8572 42.908 11.554 42.908 11.2358V10.1619C42.8583 10.2216 42.7489 10.2763 42.5799 10.326C42.4141 10.3724 42.2219 10.4138 42.0032 10.4503C41.7877 10.4834 41.5773 10.5133 41.3718 10.5398C41.1696 10.563 41.0055 10.5829 40.8796 10.5994C40.5746 10.6392 40.2896 10.7038 40.0245 10.7933C39.7626 10.8795 39.5505 11.0104 39.3881 11.1861C39.229 11.3584 39.1495 11.5937 39.1495 11.892C39.1495 12.2997 39.3003 12.608 39.6019 12.8168C39.9068 13.0223 40.2929 13.125 40.7603 13.125ZM49.3052 17.0227C48.7384 17.0227 48.2512 16.9498 47.8435 16.804C47.4359 16.6615 47.0961 16.4725 46.8244 16.2372C46.5559 16.0052 46.3421 15.7566 46.183 15.4915L47.1177 14.8352C47.2237 14.9744 47.358 15.1335 47.5204 15.3125C47.6828 15.4948 47.9048 15.6522 48.1866 15.7848C48.4716 15.9207 48.8445 15.9886 49.3052 15.9886C49.9217 15.9886 50.4304 15.8395 50.8315 15.5412C51.2325 15.2429 51.433 14.7756 51.433 14.1392V12.5881H51.3336C51.2474 12.7273 51.1248 12.8996 50.9657 13.1051C50.8099 13.3073 50.5845 13.4879 50.2896 13.647C49.9979 13.8028 49.6035 13.8807 49.1063 13.8807C48.4898 13.8807 47.9363 13.7348 47.4458 13.4432C46.9586 13.1515 46.5725 12.7273 46.2874 12.1705C46.0057 11.6136 45.8648 10.9375 45.8648 10.142C45.8648 9.35985 46.0024 8.67874 46.2775 8.09872C46.5526 7.51539 46.9354 7.06463 47.4259 6.74645C47.9164 6.42495 48.4832 6.2642 49.1262 6.2642C49.6234 6.2642 50.0178 6.34706 50.3094 6.51278C50.6044 6.67519 50.8298 6.8608 50.9856 7.0696C51.1447 7.27509 51.2673 7.44413 51.3535 7.5767H51.4728V6.36364H52.6063V14.2188C52.6063 14.875 52.4572 15.4086 52.1589 15.8196C51.8639 16.2339 51.4662 16.5372 50.9657 16.7294C50.4685 16.925 49.915 17.0227 49.3052 17.0227ZM49.2654 12.8267C49.736 12.8267 50.1338 12.719 50.4586 12.5036C50.7834 12.2881 51.0303 11.9782 51.1994 11.5739C51.3684 11.1695 51.4529 10.6856 51.4529 10.1222C51.4529 9.57197 51.37 9.08641 51.2043 8.66548C51.0386 8.24455 50.7933 7.91477 50.4685 7.67614C50.1437 7.4375 49.7427 7.31818 49.2654 7.31818C48.7682 7.31818 48.3539 7.44413 48.0225 7.69602C47.6944 7.94792 47.4475 8.28598 47.2817 8.71023C47.1193 9.13447 47.0381 9.60511 47.0381 10.1222C47.0381 10.6525 47.121 11.1214 47.2867 11.5291C47.4557 11.9335 47.7043 12.2517 48.0324 12.4837C48.3639 12.7124 48.7749 12.8267 49.2654 12.8267Z" fill="#37352F"/>
<path d="M-4 0H1944V343H-4V0Z" fill="#CCFFE2"/>
<path fill-rule="evenodd" clip-rule="evenodd" d="M1943.55 237.166V343H475.379C535.532 293.689 599.915 248.214 668.419 207.174C1082.63 -40.9782 1540.57 29.3675 1943.55 237.166Z" fill="#FFECEA"/>
<path fill-rule="evenodd" clip-rule="evenodd" d="M1373.87 169.08C1373.93 113.585 1408.92 58.5252 1467.21 46.2886C1518.96 35.4249 1554.8 83.747 1584.16 124.933C1611.76 163.654 1640.07 210.579 1611.16 248.223C1579.64 289.281 1518.29 294.69 1466.96 277.572C1415.17 260.296 1373.82 220.063 1373.87 169.08Z" fill="#0018A4"/>
<path fill-rule="evenodd" clip-rule="evenodd" d="M135.668 64.0355C166.613 63.0843 197.932 81.711 205.784 114.146C212.755 142.942 186.443 163.876 163.996 181.054C142.892 197.204 117.226 213.893 95.7253 198.369C72.2753 181.438 68.1762 147.165 76.8156 118.11C85.5343 88.7876 107.239 64.9093 135.668 64.0355Z" fill="white"/>
<rect x="-4" width="1944" height="100" fill="#0018A4"/>
<path d="M-87.0664 41.746C-87.0664 36.826 -83.0484 32.849 -77.9644 32.849C-74.0284 32.849 -70.7074 35.268 -69.4364 38.671L-70.0104 38.917C-71.1994 35.719 -74.3154 33.423 -77.9644 33.464C-82.6384 33.505 -86.4514 37.154 -86.4104 41.746C-86.3694 45.6 -83.7454 48.88 -80.0964 49.7L-77.1444 50.356C-75.6684 50.684 -74.5614 52.037 -74.5614 53.554C-74.5614 55.399 -76.1194 56.875 -78.0874 56.875C-79.7684 56.875 -81.1624 55.768 -81.5314 54.292L-80.9164 54.005C-80.6704 55.276 -79.5224 56.301 -78.0874 56.26C-76.4884 56.219 -75.2584 55.03 -75.2174 53.554C-75.1764 52.324 -76.0784 51.258 -77.3494 50.971L-80.2194 50.356C-84.2374 49.495 -87.0664 45.887 -87.0664 41.746ZM-86.6564 56.629L-86.0414 56.342C-84.8934 59.581 -81.7774 61.877 -78.0874 61.836C-73.4134 61.795 -69.6004 58.146 -69.6414 53.554C-69.6824 49.7 -72.3064 46.42 -75.9554 45.6L-78.9074 44.944C-80.3834 44.616 -81.4904 43.263 -81.4904 41.746C-81.4904 39.901 -79.9324 38.425 -77.9644 38.425C-76.2834 38.425 -74.8894 39.491 -74.5614 40.967L-75.1354 41.254C-75.3814 39.983 -76.5704 38.999 -77.9644 39.04C-79.5634 39.081 -80.7934 40.27 -80.8344 41.746C-80.8754 42.976 -79.9734 44.042 -78.7024 44.329L-75.8324 44.944C-71.8144 45.805 -68.9854 49.413 -68.9854 53.554C-68.9854 58.474 -73.0034 62.451 -78.0874 62.451C-82.0644 62.451 -85.3854 60.032 -86.6564 56.629ZM-64.1798 40.926H-67.4188V40.27H-64.1798V33.3H-63.5238V40.27H-58.6038V33.3H-57.9478V40.27H-54.7088V40.926H-57.9478V45.846H-54.7088V46.502H-57.9478V62H-58.6038V46.502H-63.5238V62H-64.1798V46.502H-67.4188V45.846H-64.1798V40.926ZM-58.6038 40.926H-63.5238V45.846H-58.6038V40.926ZM-36.2281 42.115V60.155C-33.481 58.474 -31.3081 55.071 -31.3081 51.135C-31.3081 47.199 -33.481 43.796 -36.2281 42.115ZM-42.0091 39.778C-40.164 39.778 -38.442 40.229 -36.8841 41.008V40.27H-36.2281V41.377C-33.932 42.648 -32.169 44.944 -31.3081 47.322V40.27H-30.652V62H-31.3081V54.907C-32.128 57.244 -33.932 59.663 -36.2281 60.934V62H-36.8841V61.262C-38.442 62.041 -40.164 62.492 -42.0091 62.492C-48.2821 62.492 -53.3661 57.408 -53.3661 51.135C-53.3661 44.862 -48.2821 39.778 -42.0091 39.778ZM-42.0091 61.836C-40.164 61.836 -38.4011 61.385 -36.8841 60.565V53.841C-37.8681 55.645 -39.795 56.916 -42.0091 56.916C-45.2071 56.916 -47.7901 54.333 -47.7901 51.135C-47.7901 47.937 -45.2071 45.354 -42.0091 45.354C-39.795 45.354 -37.8681 46.625 -36.8841 48.47V41.746C-38.4011 40.926 -40.164 40.434 -42.0091 40.434C-47.9131 40.434 -52.7101 45.231 -52.7101 51.135C-52.7101 57.039 -47.9131 61.836 -42.0091 61.836ZM-42.0091 56.26C-39.139 56.26 -36.8841 53.964 -36.8841 51.135C-36.8841 48.306 -39.139 46.01 -42.0091 46.01C-44.8381 46.01 -47.1341 48.306 -47.1341 51.135C-47.1341 53.964 -44.8381 56.26 -42.0091 56.26ZM-24.421 40.926H-27.66V40.27H-24.421V33.3H-23.765V40.27H-18.845V33.3H-18.189V40.27H-14.95V40.926H-18.189V45.846H-14.95V46.502H-18.189V62H-18.845V46.502H-23.765V62H-24.421V46.502H-27.66V45.846H-24.421V40.926ZM-18.845 40.926H-23.765V45.846H-18.845V40.926ZM-13.6073 51.135C-13.6073 44.862 -8.52326 39.778 -2.25026 39.778C2.75174 39.778 6.97474 42.976 8.49174 47.486L-4.83326 55.563C-4.05426 56.014 -3.19326 56.26 -2.25026 56.26C-0.200261 56.26 1.56274 55.03 2.38274 53.308L2.99774 53.595C2.09574 55.563 0.0867391 56.916 -2.25026 56.916C-3.43926 56.916 -4.54626 56.547 -5.44826 55.932L-9.87626 58.638C-7.94926 60.606 -5.24326 61.836 -2.25026 61.836C2.01374 61.836 5.74474 59.294 7.46674 55.645L8.04074 55.932C6.23674 59.827 2.30074 62.492 -2.25026 62.492C-8.52326 62.492 -13.6073 57.408 -13.6073 51.135ZM-12.9513 51.135C-12.9513 52.324 -12.7463 53.431 -12.4183 54.497L-7.99026 51.791C-8.03126 51.586 -8.03126 51.34 -8.03126 51.135C-8.03126 47.937 -5.44826 45.354 -2.25026 45.354C-1.06126 45.354 0.0867391 45.723 0.988738 46.338L5.37574 43.673C3.44874 41.664 0.742739 40.434 -2.25026 40.434C-8.15426 40.434 -12.9513 45.231 -12.9513 51.135ZM-12.1723 55.112C-11.7213 56.219 -11.1063 57.244 -10.3273 58.146L-6.02226 55.522C-6.92426 54.743 -7.58026 53.677 -7.86726 52.488L-12.1723 55.112ZM-7.37526 51.135V51.422L0.373739 46.707C-0.405261 46.256 -1.30726 46.01 -2.25026 46.01C-5.07926 46.01 -7.37526 48.306 -7.37526 51.135ZM-7.29326 52.16C-7.04726 53.349 -6.35026 54.415 -5.40726 55.153L2.79274 50.151C2.54674 48.962 1.89074 47.896 0.947739 47.117L-7.29326 52.16ZM1.56274 46.789C2.46474 47.568 3.12074 48.593 3.36674 49.823L7.71274 47.158C7.26174 46.051 6.60574 45.067 5.86774 44.165L1.56274 46.789ZM37.6254 55.522L35.0014 62H34.3454L27.3344 44.698L24.3004 62H23.6444L26.8834 43.55L23.2344 34.448L18.3964 62H17.7404L22.7834 33.3H23.4394L27.0884 42.402L28.6874 33.3H29.3434L37.6254 53.882L45.9074 33.3H46.5634L48.1624 42.361L51.8114 33.3H52.4674L57.5104 62H56.8544L52.0164 34.448L48.3674 43.509L51.6064 62H50.9504L47.9164 44.616L40.9054 62H40.2494L37.6254 55.522ZM40.5774 61.18L47.7114 43.468L46.1124 34.448L37.9534 54.702L40.5774 61.18ZM37.2974 54.702L29.1384 34.448L27.5394 43.55L34.6734 61.18L37.2974 54.702ZM75.8813 42.115V60.155C78.6283 58.474 80.8013 55.071 80.8013 51.135C80.8013 47.199 78.6283 43.796 75.8813 42.115ZM70.1003 39.778C71.9453 39.778 73.6673 40.229 75.2253 41.008V40.27H75.8813V41.377C78.1773 42.648 79.9403 44.944 80.8013 47.322V40.27H81.4573V62H80.8013V54.907C79.9813 57.244 78.1773 59.663 75.8813 60.934V62H75.2253V61.262C73.6673 62.041 71.9453 62.492 70.1003 62.492C63.8273 62.492 58.7433 57.408 58.7433 51.135C58.7433 44.862 63.8273 39.778 70.1003 39.778ZM70.1003 61.836C71.9453 61.836 73.7083 61.385 75.2253 60.565V53.841C74.2413 55.645 72.3143 56.916 70.1003 56.916C66.9023 56.916 64.3193 54.333 64.3193 51.135C64.3193 47.937 66.9023 45.354 70.1003 45.354C72.3143 45.354 74.2413 46.625 75.2253 48.47V41.746C73.7083 40.926 71.9453 40.434 70.1003 40.434C64.1963 40.434 59.3993 45.231 59.3993 51.135C59.3993 57.039 64.1963 61.836 70.1003 61.836ZM70.1003 56.26C72.9703 56.26 75.2253 53.964 75.2253 51.135C75.2253 48.306 72.9703 46.01 70.1003 46.01C67.2713 46.01 64.9753 48.306 64.9753 51.135C64.9753 53.964 67.2713 56.26 70.1003 56.26ZM85.6384 62V40.27H86.2944V46.461C87.1964 44.124 88.9594 42.197 91.2144 41.09V40.27H91.8704V40.762C93.0184 40.311 94.2484 40.065 95.5604 40.065C101.013 40.065 105.482 44.534 105.482 49.987V62H104.826V49.987C104.826 44.903 100.644 40.721 95.5604 40.721C94.2484 40.721 93.0184 41.008 91.8704 41.5V47.691C92.6494 46.461 94.0024 45.641 95.5604 45.641C97.9384 45.641 99.9064 47.609 99.9064 49.987V62H99.2504V49.987C99.2504 47.978 97.5694 46.297 95.5604 46.297C93.5514 46.297 91.8704 47.978 91.8704 49.987V62H91.2144V41.828C88.3034 43.386 86.2944 46.461 86.2944 49.987V62H85.6384ZM125.249 42.115V60.155C127.996 58.474 130.169 55.071 130.169 51.135C130.169 47.199 127.996 43.796 125.249 42.115ZM119.468 39.778C121.313 39.778 123.035 40.229 124.593 41.008V40.27H125.249V41.377C127.545 42.648 129.308 44.944 130.169 47.322V40.27H130.825V62H130.169V54.907C129.349 57.244 127.545 59.663 125.249 60.934V62H124.593V61.262C123.035 62.041 121.313 62.492 119.468 62.492C113.195 62.492 108.111 57.408 108.111 51.135C108.111 44.862 113.195 39.778 119.468 39.778ZM119.468 61.836C121.313 61.836 123.076 61.385 124.593 60.565V53.841C123.609 55.645 121.682 56.916 119.468 56.916C116.27 56.916 113.687 54.333 113.687 51.135C113.687 47.937 116.27 45.354 119.468 45.354C121.682 45.354 123.609 46.625 124.593 48.47V41.746C123.076 40.926 121.313 40.434 119.468 40.434C113.564 40.434 108.767 45.231 108.767 51.135C108.767 57.039 113.564 61.836 119.468 61.836ZM119.468 56.26C122.338 56.26 124.593 53.964 124.593 51.135C124.593 48.306 122.338 46.01 119.468 46.01C116.639 46.01 114.343 48.306 114.343 51.135C114.343 53.964 116.639 56.26 119.468 56.26ZM133.818 51.135C133.818 44.862 138.902 39.778 145.175 39.778C147.02 39.778 148.742 40.229 150.3 41.008V40.27H150.956V41.377C153.252 42.648 155.015 44.944 155.876 47.322V40.27H156.532V60.155C156.532 66.428 151.489 71.512 145.175 71.512C141.28 71.512 137.836 69.503 135.745 66.51L136.319 66.182C138.287 69.011 141.526 70.856 145.175 70.856C151.161 70.856 155.876 66.1 155.876 60.155V54.907C155.056 57.285 153.211 59.663 150.874 60.934C150.464 63.722 148.127 65.936 145.175 65.936C143.33 65.936 141.649 65.034 140.583 63.722L141.157 63.394C142.059 64.501 143.576 65.28 145.175 65.28C147.635 65.28 149.644 63.599 150.177 61.344C148.66 62.041 146.938 62.492 145.175 62.492C138.902 62.492 133.818 57.408 133.818 51.135ZM134.474 51.135C134.474 57.039 139.271 61.836 145.175 61.836C147.02 61.836 148.742 61.385 150.259 60.565C150.3 60.278 150.3 59.745 150.3 59.212V53.841C149.316 55.645 147.389 56.916 145.175 56.916C141.977 56.916 139.394 54.333 139.394 51.135C139.394 47.937 141.977 45.354 145.175 45.354C147.389 45.354 149.316 46.625 150.3 48.47V41.746C148.783 40.926 147.02 40.434 145.175 40.434C139.271 40.434 134.474 45.231 134.474 51.135ZM140.05 51.135C140.05 53.964 142.346 56.26 145.175 56.26C148.045 56.26 150.3 53.964 150.3 51.135C150.3 48.306 148.045 46.01 145.175 46.01C142.346 46.01 140.05 48.306 140.05 51.135ZM150.956 42.115V60.155C153.703 58.474 155.876 55.071 155.876 51.135C155.876 47.199 153.703 43.796 150.956 42.115ZM159.442 51.135C159.442 44.862 164.526 39.778 170.799 39.778C175.801 39.778 180.024 42.976 181.541 47.486L168.216 55.563C168.995 56.014 169.856 56.26 170.799 56.26C172.849 56.26 174.612 55.03 175.432 53.308L176.047 53.595C175.145 55.563 173.136 56.916 170.799 56.916C169.61 56.916 168.503 56.547 167.601 55.932L163.173 58.638C165.1 60.606 167.806 61.836 170.799 61.836C175.063 61.836 178.794 59.294 180.516 55.645L181.09 55.932C179.286 59.827 175.35 62.492 170.799 62.492C164.526 62.492 159.442 57.408 159.442 51.135ZM160.098 51.135C160.098 52.324 160.303 53.431 160.631 54.497L165.059 51.791C165.018 51.586 165.018 51.34 165.018 51.135C165.018 47.937 167.601 45.354 170.799 45.354C171.988 45.354 173.136 45.723 174.038 46.338L178.425 43.673C176.498 41.664 173.792 40.434 170.799 40.434C164.895 40.434 160.098 45.231 160.098 51.135ZM160.877 55.112C161.328 56.219 161.943 57.244 162.722 58.146L167.027 55.522C166.125 54.743 165.469 53.677 165.182 52.488L160.877 55.112ZM165.674 51.135V51.422L173.423 46.707C172.644 46.256 171.742 46.01 170.799 46.01C167.97 46.01 165.674 48.306 165.674 51.135ZM165.756 52.16C166.002 53.349 166.699 54.415 167.642 55.153L175.842 50.151C175.596 48.962 174.94 47.896 173.997 47.117L165.756 52.16ZM174.612 46.789C175.514 47.568 176.17 48.593 176.416 49.823L180.762 47.158C180.311 46.051 179.655 45.067 178.917 44.165L174.612 46.789ZM183.534 62V40.27H184.19V45.969C185.092 43.714 186.896 41.869 189.11 40.885V40.27H189.766V40.639C190.709 40.311 191.775 40.106 192.841 40.106C195.219 40.106 197.392 41.008 199.032 42.484C200.672 41.008 202.845 40.106 205.223 40.106C210.348 40.106 214.53 44.288 214.53 49.413V62H213.874V49.413C213.874 44.657 209.979 40.762 205.223 40.762C203.05 40.762 201.041 41.582 199.524 42.935C200.754 44.206 201.615 45.805 201.984 47.609C202.599 46.461 203.829 45.682 205.223 45.682C207.273 45.682 208.954 47.363 208.954 49.413V62H208.298V49.413C208.298 47.732 206.904 46.338 205.223 46.338C203.542 46.338 202.148 47.732 202.148 49.413V62H201.492V49.413C201.492 47.076 200.549 44.944 199.032 43.386C197.515 44.944 196.572 47.076 196.572 49.413V62H195.916V49.413C195.916 47.732 194.522 46.338 192.841 46.338C191.16 46.338 189.766 47.732 189.766 49.413V62H189.11V41.623C186.199 43.017 184.19 46.01 184.19 49.413V62H183.534ZM189.766 41.336V47.322C190.422 46.338 191.57 45.682 192.841 45.682C194.235 45.682 195.465 46.461 196.08 47.609C196.449 45.805 197.31 44.206 198.54 42.935C197.023 41.582 195.014 40.762 192.841 40.762C191.775 40.762 190.709 40.967 189.766 41.336ZM217.178 51.135C217.178 44.862 222.262 39.778 228.535 39.778C233.537 39.778 237.76 42.976 239.277 47.486L225.952 55.563C226.731 56.014 227.592 56.26 228.535 56.26C230.585 56.26 232.348 55.03 233.168 53.308L233.783 53.595C232.881 55.563 230.872 56.916 228.535 56.916C227.346 56.916 226.239 56.547 225.337 55.932L220.909 58.638C222.836 60.606 225.542 61.836 228.535 61.836C232.799 61.836 236.53 59.294 238.252 55.645L238.826 55.932C237.022 59.827 233.086 62.492 228.535 62.492C222.262 62.492 217.178 57.408 217.178 51.135ZM217.834 51.135C217.834 52.324 218.039 53.431 218.367 54.497L222.795 51.791C222.754 51.586 222.754 51.34 222.754 51.135C222.754 47.937 225.337 45.354 228.535 45.354C229.724 45.354 230.872 45.723 231.774 46.338L236.161 43.673C234.234 41.664 231.528 40.434 228.535 40.434C222.631 40.434 217.834 45.231 217.834 51.135ZM218.613 55.112C219.064 56.219 219.679 57.244 220.458 58.146L224.763 55.522C223.861 54.743 223.205 53.677 222.918 52.488L218.613 55.112ZM223.41 51.135V51.422L231.159 46.707C230.38 46.256 229.478 46.01 228.535 46.01C225.706 46.01 223.41 48.306 223.41 51.135ZM223.492 52.16C223.738 53.349 224.435 54.415 225.378 55.153L233.578 50.151C233.332 48.962 232.676 47.896 231.733 47.117L223.492 52.16ZM232.348 46.789C233.25 47.568 233.906 48.593 234.152 49.823L238.498 47.158C238.047 46.051 237.391 45.067 236.653 44.165L232.348 46.789ZM241.27 62V40.27H241.926V46.461C242.828 44.124 244.591 42.197 246.846 41.09V40.27H247.502V40.762C248.65 40.311 249.88 40.065 251.192 40.065C256.645 40.065 261.114 44.534 261.114 49.987V62H260.458V49.987C260.458 44.903 256.276 40.721 251.192 40.721C249.88 40.721 248.65 41.008 247.502 41.5V47.691C248.281 46.461 249.634 45.641 251.192 45.641C253.57 45.641 255.538 47.609 255.538 49.987V62H254.882V49.987C254.882 47.978 253.201 46.297 251.192 46.297C249.183 46.297 247.502 47.978 247.502 49.987V62H246.846V41.828C243.935 43.386 241.926 46.461 241.926 49.987V62H241.27ZM266.623 40.926H263.384V40.27H266.623V33.3H267.279V40.27H272.199V33.3H272.855V40.27H276.094V40.926H272.855V45.846H276.094V46.502H272.855V62H272.199V46.502H267.279V62H266.623V46.502H263.384V45.846H266.623V40.926ZM272.199 40.926H267.279V45.846H272.199V40.926ZM294.44 61.344H305.305V62H288.208V33.3H305.305V33.956H294.44V38.876H305.305V39.532H294.44V44.534H302.353V45.19H294.44V50.11H302.353V50.766H294.44V55.768H305.305V56.424H294.44V61.344ZM288.864 39.532V44.534H293.784V39.532H288.864ZM293.784 56.424H288.864V61.344H293.784V56.424ZM293.784 33.956H288.864V38.876H293.784V33.956ZM293.784 45.19H288.864V50.11H293.784V45.19ZM288.864 50.766V55.768H293.784V50.766H288.864ZM313.899 40.27L317.466 45.682L321.074 40.27H321.894L317.876 46.297L320.664 50.52L327.47 40.27H328.29L321.074 51.135L328.29 62H327.47L320.664 51.75L317.876 55.973L321.894 62H321.074L317.507 56.588L313.899 62H313.079L317.097 55.973L314.268 51.75L307.503 62H306.683L313.858 51.135L306.683 40.27H307.503L314.268 50.52L317.056 46.297L313.079 40.27H313.899ZM317.466 55.358L320.254 51.135L317.466 46.912L314.678 51.135L317.466 55.358ZM327.806 51.135C327.806 44.862 332.89 39.778 339.163 39.778C344.165 39.778 348.388 42.976 349.905 47.486L336.58 55.563C337.359 56.014 338.22 56.26 339.163 56.26C341.213 56.26 342.976 55.03 343.796 53.308L344.411 53.595C343.509 55.563 341.5 56.916 339.163 56.916C337.974 56.916 336.867 56.547 335.965 55.932L331.537 58.638C333.464 60.606 336.17 61.836 339.163 61.836C343.427 61.836 347.158 59.294 348.88 55.645L349.454 55.932C347.65 59.827 343.714 62.492 339.163 62.492C332.89 62.492 327.806 57.408 327.806 51.135ZM328.462 51.135C328.462 52.324 328.667 53.431 328.995 54.497L333.423 51.791C333.382 51.586 333.382 51.34 333.382 51.135C333.382 47.937 335.965 45.354 339.163 45.354C340.352 45.354 341.5 45.723 342.402 46.338L346.789 43.673C344.862 41.664 342.156 40.434 339.163 40.434C333.259 40.434 328.462 45.231 328.462 51.135ZM329.241 55.112C329.692 56.219 330.307 57.244 331.086 58.146L335.391 55.522C334.489 54.743 333.833 53.677 333.546 52.488L329.241 55.112ZM334.038 51.135V51.422L341.787 46.707C341.008 46.256 340.106 46.01 339.163 46.01C336.334 46.01 334.038 48.306 334.038 51.135ZM334.12 52.16C334.366 53.349 335.063 54.415 336.006 55.153L344.206 50.151C343.96 48.962 343.304 47.896 342.361 47.117L334.12 52.16ZM342.976 46.789C343.878 47.568 344.534 48.593 344.78 49.823L349.126 47.158C348.675 46.051 348.019 45.067 347.281 44.165L342.976 46.789ZM357.474 62V42.689C355.26 44.042 352.554 46.83 352.554 51.709V62H351.898V40.27H352.554V47.732C353.579 44.903 355.178 43.304 357.474 41.951V40.27H358.13V41.582C359.77 40.762 361.533 40.352 363.255 40.352V41.008C361.533 41.008 359.729 41.459 358.13 42.32V49.044C359.073 47.199 361.041 45.928 363.255 45.928V46.584C360.385 46.584 358.13 48.88 358.13 51.709V62H357.474ZM376.136 45.846V46.502H374.947C372.446 46.502 370.314 48.634 370.314 51.135C370.314 53.636 372.446 55.768 374.947 55.768H376.136V56.424H374.947C372.077 56.424 369.658 54.005 369.658 51.135C369.658 48.265 372.077 45.846 374.947 45.846H376.136ZM376.136 40.926H374.947C369.33 40.926 364.738 45.518 364.738 51.135C364.738 56.752 369.33 61.344 374.947 61.344H376.136V62H374.947C368.961 62 364.082 57.121 364.082 51.135C364.082 45.149 368.961 40.27 374.947 40.27H376.136V40.926ZM379.605 62V40.27H380.261V62H379.605ZM385.837 40.27V62H385.181V40.27H385.837ZM385.181 38.138V31.25H385.837V38.138H385.181ZM380.261 31.25V38.138H379.605V31.25H380.261ZM389.031 46.953C389.031 42.976 392.229 39.778 396.206 39.778C399.158 39.778 401.7 41.582 402.807 44.124L402.192 44.411C401.208 42.074 398.871 40.434 396.206 40.434C392.598 40.434 389.687 43.345 389.687 46.953C389.687 50.028 391.778 52.57 394.648 53.308L396.452 53.759C397.149 53.923 397.641 54.579 397.641 55.317C397.641 56.219 396.944 56.916 396.042 56.916C395.345 56.916 394.771 56.506 394.525 55.85L395.14 55.604C395.263 55.973 395.591 56.26 396.042 56.26C396.575 56.26 396.985 55.85 396.985 55.317C396.985 54.866 396.739 54.497 396.288 54.374L394.443 53.923C391.327 53.144 389.031 50.315 389.031 46.953ZM389.441 58.187L390.056 57.9C391.04 60.237 393.336 61.836 396.042 61.836C399.65 61.836 402.561 58.925 402.561 55.317C402.561 52.242 400.47 49.7 397.6 48.962L395.796 48.511C395.058 48.306 394.607 47.691 394.607 46.953C394.607 46.051 395.304 45.354 396.206 45.354C396.903 45.354 397.477 45.805 397.682 46.42L397.108 46.666C396.985 46.297 396.616 46.01 396.206 46.01C395.673 46.01 395.263 46.42 395.263 46.953C395.263 47.404 395.509 47.773 395.96 47.896L397.805 48.347C400.962 49.126 403.217 51.955 403.217 55.317C403.217 59.294 400.019 62.492 396.042 62.492C393.09 62.492 390.548 60.729 389.441 58.187ZM405.201 51.135C405.201 44.862 410.285 39.778 416.558 39.778C421.56 39.778 425.783 42.976 427.3 47.486L413.975 55.563C414.754 56.014 415.615 56.26 416.558 56.26C418.608 56.26 420.371 55.03 421.191 53.308L421.806 53.595C420.904 55.563 418.895 56.916 416.558 56.916C415.369 56.916 414.262 56.547 413.36 55.932L408.932 58.638C410.859 60.606 413.565 61.836 416.558 61.836C420.822 61.836 424.553 59.294 426.275 55.645L426.849 55.932C425.045 59.827 421.109 62.492 416.558 62.492C410.285 62.492 405.201 57.408 405.201 51.135ZM405.857 51.135C405.857 52.324 406.062 53.431 406.39 54.497L410.818 51.791C410.777 51.586 410.777 51.34 410.777 51.135C410.777 47.937 413.36 45.354 416.558 45.354C417.747 45.354 418.895 45.723 419.797 46.338L424.184 43.673C422.257 41.664 419.551 40.434 416.558 40.434C410.654 40.434 405.857 45.231 405.857 51.135ZM406.636 55.112C407.087 56.219 407.702 57.244 408.481 58.146L412.786 55.522C411.884 54.743 411.228 53.677 410.941 52.488L406.636 55.112ZM411.433 51.135V51.422L419.182 46.707C418.403 46.256 417.501 46.01 416.558 46.01C413.729 46.01 411.433 48.306 411.433 51.135ZM411.515 52.16C411.761 53.349 412.458 54.415 413.401 55.153L421.601 50.151C421.355 48.962 420.699 47.896 419.756 47.117L411.515 52.16ZM420.371 46.789C421.273 47.568 421.929 48.593 422.175 49.823L426.521 47.158C426.07 46.051 425.414 45.067 424.676 44.165L420.371 46.789ZM437.205 41.746C437.205 36.826 441.223 32.849 446.307 32.849C450.243 32.849 453.564 35.268 454.835 38.671L454.261 38.917C453.072 35.719 449.956 33.423 446.307 33.464C441.633 33.505 437.82 37.154 437.861 41.746C437.902 45.6 440.526 48.88 444.175 49.7L447.127 50.356C448.603 50.684 449.71 52.037 449.71 53.554C449.71 55.399 448.152 56.875 446.184 56.875C444.503 56.875 443.109 55.768 442.74 54.292L443.355 54.005C443.601 55.276 444.749 56.301 446.184 56.26C447.783 56.219 449.013 55.03 449.054 53.554C449.095 52.324 448.193 51.258 446.922 50.971L444.052 50.356C440.034 49.495 437.205 45.887 437.205 41.746ZM437.615 56.629L438.23 56.342C439.378 59.581 442.494 61.877 446.184 61.836C450.858 61.795 454.671 58.146 454.63 53.554C454.589 49.7 451.965 46.42 448.316 45.6L445.364 44.944C443.888 44.616 442.781 43.263 442.781 41.746C442.781 39.901 444.339 38.425 446.307 38.425C447.988 38.425 449.382 39.491 449.71 40.967L449.136 41.254C448.89 39.983 447.701 38.999 446.307 39.04C444.708 39.081 443.478 40.27 443.437 41.746C443.396 42.976 444.298 44.042 445.569 44.329L448.439 44.944C452.457 45.805 455.286 49.413 455.286 53.554C455.286 58.474 451.268 62.451 446.184 62.451C442.207 62.451 438.886 60.032 437.615 56.629ZM460.092 40.926H456.853V40.27H460.092V33.3H460.748V40.27H465.668V33.3H466.324V40.27H469.563V40.926H466.324V45.846H469.563V46.502H466.324V62H465.668V46.502H460.748V62H460.092V46.502H456.853V45.846H460.092V40.926ZM465.668 40.926H460.748V45.846H465.668V40.926ZM488.043 42.115V60.155C490.79 58.474 492.963 55.071 492.963 51.135C492.963 47.199 490.79 43.796 488.043 42.115ZM482.262 39.778C484.107 39.778 485.829 40.229 487.387 41.008V40.27H488.043V41.377C490.339 42.648 492.102 44.944 492.963 47.322V40.27H493.619V62H492.963V54.907C492.143 57.244 490.339 59.663 488.043 60.934V62H487.387V61.262C485.829 62.041 484.107 62.492 482.262 62.492C475.989 62.492 470.905 57.408 470.905 51.135C470.905 44.862 475.989 39.778 482.262 39.778ZM482.262 61.836C484.107 61.836 485.87 61.385 487.387 60.565V53.841C486.403 55.645 484.476 56.916 482.262 56.916C479.064 56.916 476.481 54.333 476.481 51.135C476.481 47.937 479.064 45.354 482.262 45.354C484.476 45.354 486.403 46.625 487.387 48.47V41.746C485.87 40.926 484.107 40.434 482.262 40.434C476.358 40.434 471.561 45.231 471.561 51.135C471.561 57.039 476.358 61.836 482.262 61.836ZM482.262 56.26C485.132 56.26 487.387 53.964 487.387 51.135C487.387 48.306 485.132 46.01 482.262 46.01C479.433 46.01 477.137 48.306 477.137 51.135C477.137 53.964 479.433 56.26 482.262 56.26ZM499.85 40.926H496.611V40.27H499.85V33.3H500.506V40.27H505.426V33.3H506.082V40.27H509.321V40.926H506.082V45.846H509.321V46.502H506.082V62H505.426V46.502H500.506V62H499.85V46.502H496.611V45.846H499.85V40.926ZM505.426 40.926H500.506V45.846H505.426V40.926ZM510.664 51.135C510.664 44.862 515.748 39.778 522.021 39.778C527.023 39.778 531.246 42.976 532.763 47.486L519.438 55.563C520.217 56.014 521.078 56.26 522.021 56.26C524.071 56.26 525.834 55.03 526.654 53.308L527.269 53.595C526.367 55.563 524.358 56.916 522.021 56.916C520.832 56.916 519.725 56.547 518.823 55.932L514.395 58.638C516.322 60.606 519.028 61.836 522.021 61.836C526.285 61.836 530.016 59.294 531.738 55.645L532.312 55.932C530.508 59.827 526.572 62.492 522.021 62.492C515.748 62.492 510.664 57.408 510.664 51.135ZM511.32 51.135C511.32 52.324 511.525 53.431 511.853 54.497L516.281 51.791C516.24 51.586 516.24 51.34 516.24 51.135C516.24 47.937 518.823 45.354 522.021 45.354C523.21 45.354 524.358 45.723 525.26 46.338L529.647 43.673C527.72 41.664 525.014 40.434 522.021 40.434C516.117 40.434 511.32 45.231 511.32 51.135ZM512.099 55.112C512.55 56.219 513.165 57.244 513.944 58.146L518.249 55.522C517.347 54.743 516.691 53.677 516.404 52.488L512.099 55.112ZM516.896 51.135V51.422L524.645 46.707C523.866 46.256 522.964 46.01 522.021 46.01C519.192 46.01 516.896 48.306 516.896 51.135ZM516.978 52.16C517.224 53.349 517.921 54.415 518.864 55.153L527.064 50.151C526.818 48.962 526.162 47.896 525.219 47.117L516.978 52.16ZM525.834 46.789C526.736 47.568 527.392 48.593 527.638 49.823L531.984 47.158C531.533 46.051 530.877 45.067 530.139 44.165L525.834 46.789ZM561.897 55.522L559.273 62H558.617L551.606 44.698L548.572 62H547.916L551.155 43.55L547.506 34.448L542.668 62H542.012L547.055 33.3H547.711L551.36 42.402L552.959 33.3H553.615L561.897 53.882L570.179 33.3H570.835L572.434 42.361L576.083 33.3H576.739L581.782 62H581.126L576.288 34.448L572.639 43.509L575.878 62H575.222L572.188 44.616L565.177 62H564.521L561.897 55.522ZM564.849 61.18L571.983 43.468L570.384 34.448L562.225 54.702L564.849 61.18ZM561.569 54.702L553.41 34.448L551.811 43.55L558.945 61.18L561.569 54.702ZM600.153 42.115V60.155C602.9 58.474 605.073 55.071 605.073 51.135C605.073 47.199 602.9 43.796 600.153 42.115ZM594.372 39.778C596.217 39.778 597.939 40.229 599.497 41.008V40.27H600.153V41.377C602.449 42.648 604.212 44.944 605.073 47.322V40.27H605.729V62H605.073V54.907C604.253 57.244 602.449 59.663 600.153 60.934V62H599.497V61.262C597.939 62.041 596.217 62.492 594.372 62.492C588.099 62.492 583.015 57.408 583.015 51.135C583.015 44.862 588.099 39.778 594.372 39.778ZM594.372 61.836C596.217 61.836 597.98 61.385 599.497 60.565V53.841C598.513 55.645 596.586 56.916 594.372 56.916C591.174 56.916 588.591 54.333 588.591 51.135C588.591 47.937 591.174 45.354 594.372 45.354C596.586 45.354 598.513 46.625 599.497 48.47V41.746C597.98 40.926 596.217 40.434 594.372 40.434C588.468 40.434 583.671 45.231 583.671 51.135C583.671 57.039 588.468 61.836 594.372 61.836ZM594.372 56.26C597.242 56.26 599.497 53.964 599.497 51.135C599.497 48.306 597.242 46.01 594.372 46.01C591.543 46.01 589.247 48.306 589.247 51.135C589.247 53.964 591.543 56.26 594.372 56.26ZM609.91 62V40.27H610.566V46.461C611.468 44.124 613.231 42.197 615.486 41.09V40.27H616.142V40.762C617.29 40.311 618.52 40.065 619.832 40.065C625.285 40.065 629.754 44.534 629.754 49.987V62H629.098V49.987C629.098 44.903 624.916 40.721 619.832 40.721C618.52 40.721 617.29 41.008 616.142 41.5V47.691C616.921 46.461 618.274 45.641 619.832 45.641C622.21 45.641 624.178 47.609 624.178 49.987V62H623.522V49.987C623.522 47.978 621.841 46.297 619.832 46.297C617.823 46.297 616.142 47.978 616.142 49.987V62H615.486V41.828C612.575 43.386 610.566 46.461 610.566 49.987V62H609.91ZM649.521 42.115V60.155C652.268 58.474 654.441 55.071 654.441 51.135C654.441 47.199 652.268 43.796 649.521 42.115ZM643.74 39.778C645.585 39.778 647.307 40.229 648.865 41.008V40.27H649.521V41.377C651.817 42.648 653.58 44.944 654.441 47.322V40.27H655.097V62H654.441V54.907C653.621 57.244 651.817 59.663 649.521 60.934V62H648.865V61.262C647.307 62.041 645.585 62.492 643.74 62.492C637.467 62.492 632.383 57.408 632.383 51.135C632.383 44.862 637.467 39.778 643.74 39.778ZM643.74 61.836C645.585 61.836 647.348 61.385 648.865 60.565V53.841C647.881 55.645 645.954 56.916 643.74 56.916C640.542 56.916 637.959 54.333 637.959 51.135C637.959 47.937 640.542 45.354 643.74 45.354C645.954 45.354 647.881 46.625 648.865 48.47V41.746C647.348 40.926 645.585 40.434 643.74 40.434C637.836 40.434 633.039 45.231 633.039 51.135C633.039 57.039 637.836 61.836 643.74 61.836ZM643.74 56.26C646.61 56.26 648.865 53.964 648.865 51.135C648.865 48.306 646.61 46.01 643.74 46.01C640.911 46.01 638.615 48.306 638.615 51.135C638.615 53.964 640.911 56.26 643.74 56.26ZM658.089 51.135C658.089 44.862 663.173 39.778 669.446 39.778C671.291 39.778 673.013 40.229 674.571 41.008V40.27H675.227V41.377C677.523 42.648 679.286 44.944 680.147 47.322V40.27H680.803V60.155C680.803 66.428 675.76 71.512 669.446 71.512C665.551 71.512 662.107 69.503 660.016 66.51L660.59 66.182C662.558 69.011 665.797 70.856 669.446 70.856C675.432 70.856 680.147 66.1 680.147 60.155V54.907C679.327 57.285 677.482 59.663 675.145 60.934C674.735 63.722 672.398 65.936 669.446 65.936C667.601 65.936 665.92 65.034 664.854 63.722L665.428 63.394C666.33 64.501 667.847 65.28 669.446 65.28C671.906 65.28 673.915 63.599 674.448 61.344C672.931 62.041 671.209 62.492 669.446 62.492C663.173 62.492 658.089 57.408 658.089 51.135ZM658.745 51.135C658.745 57.039 663.542 61.836 669.446 61.836C671.291 61.836 673.013 61.385 674.53 60.565C674.571 60.278 674.571 59.745 674.571 59.212V53.841C673.587 55.645 671.66 56.916 669.446 56.916C666.248 56.916 663.665 54.333 663.665 51.135C663.665 47.937 666.248 45.354 669.446 45.354C671.66 45.354 673.587 46.625 674.571 48.47V41.746C673.054 40.926 671.291 40.434 669.446 40.434C663.542 40.434 658.745 45.231 658.745 51.135ZM664.321 51.135C664.321 53.964 666.617 56.26 669.446 56.26C672.316 56.26 674.571 53.964 674.571 51.135C674.571 48.306 672.316 46.01 669.446 46.01C666.617 46.01 664.321 48.306 664.321 51.135ZM675.227 42.115V60.155C677.974 58.474 680.147 55.071 680.147 51.135C680.147 47.199 677.974 43.796 675.227 42.115ZM683.713 51.135C683.713 44.862 688.797 39.778 695.07 39.778C700.072 39.778 704.295 42.976 705.812 47.486L692.487 55.563C693.266 56.014 694.127 56.26 695.07 56.26C697.12 56.26 698.883 55.03 699.703 53.308L700.318 53.595C699.416 55.563 697.407 56.916 695.07 56.916C693.881 56.916 692.774 56.547 691.872 55.932L687.444 58.638C689.371 60.606 692.077 61.836 695.07 61.836C699.334 61.836 703.065 59.294 704.787 55.645L705.361 55.932C703.557 59.827 699.621 62.492 695.07 62.492C688.797 62.492 683.713 57.408 683.713 51.135ZM684.369 51.135C684.369 52.324 684.574 53.431 684.902 54.497L689.33 51.791C689.289 51.586 689.289 51.34 689.289 51.135C689.289 47.937 691.872 45.354 695.07 45.354C696.259 45.354 697.407 45.723 698.309 46.338L702.696 43.673C700.769 41.664 698.063 40.434 695.07 40.434C689.166 40.434 684.369 45.231 684.369 51.135ZM685.148 55.112C685.599 56.219 686.214 57.244 686.993 58.146L691.298 55.522C690.396 54.743 689.74 53.677 689.453 52.488L685.148 55.112ZM689.945 51.135V51.422L697.694 46.707C696.915 46.256 696.013 46.01 695.07 46.01C692.241 46.01 689.945 48.306 689.945 51.135ZM690.027 52.16C690.273 53.349 690.97 54.415 691.913 55.153L700.113 50.151C699.867 48.962 699.211 47.896 698.268 47.117L690.027 52.16ZM698.883 46.789C699.785 47.568 700.441 48.593 700.687 49.823L705.033 47.158C704.582 46.051 703.926 45.067 703.188 44.165L698.883 46.789ZM707.805 62V40.27H708.461V45.969C709.363 43.714 711.167 41.869 713.381 40.885V40.27H714.037V40.639C714.98 40.311 716.046 40.106 717.112 40.106C719.49 40.106 721.663 41.008 723.303 42.484C724.943 41.008 727.116 40.106 729.494 40.106C734.619 40.106 738.801 44.288 738.801 49.413V62H738.145V49.413C738.145 44.657 734.25 40.762 729.494 40.762C727.321 40.762 725.312 41.582 723.795 42.935C725.025 44.206 725.886 45.805 726.255 47.609C726.87 46.461 728.1 45.682 729.494 45.682C731.544 45.682 733.225 47.363 733.225 49.413V62H732.569V49.413C732.569 47.732 731.175 46.338 729.494 46.338C727.813 46.338 726.419 47.732 726.419 49.413V62H725.763V49.413C725.763 47.076 724.82 44.944 723.303 43.386C721.786 44.944 720.843 47.076 720.843 49.413V62H720.187V49.413C720.187 47.732 718.793 46.338 717.112 46.338C715.431 46.338 714.037 47.732 714.037 49.413V62H713.381V41.623C710.47 43.017 708.461 46.01 708.461 49.413V62H707.805ZM714.037 41.336V47.322C714.693 46.338 715.841 45.682 717.112 45.682C718.506 45.682 719.736 46.461 720.351 47.609C720.72 45.805 721.581 44.206 722.811 42.935C721.294 41.582 719.285 40.762 717.112 40.762C716.046 40.762 714.98 40.967 714.037 41.336ZM741.449 51.135C741.449 44.862 746.533 39.778 752.806 39.778C757.808 39.778 762.031 42.976 763.548 47.486L750.223 55.563C751.002 56.014 751.863 56.26 752.806 56.26C754.856 56.26 756.619 55.03 757.439 53.308L758.054 53.595C757.152 55.563 755.143 56.916 752.806 56.916C751.617 56.916 750.51 56.547 749.608 55.932L745.18 58.638C747.107 60.606 749.813 61.836 752.806 61.836C757.07 61.836 760.801 59.294 762.523 55.645L763.097 55.932C761.293 59.827 757.357 62.492 752.806 62.492C746.533 62.492 741.449 57.408 741.449 51.135ZM742.105 51.135C742.105 52.324 742.31 53.431 742.638 54.497L747.066 51.791C747.025 51.586 747.025 51.34 747.025 51.135C747.025 47.937 749.608 45.354 752.806 45.354C753.995 45.354 755.143 45.723 756.045 46.338L760.432 43.673C758.505 41.664 755.799 40.434 752.806 40.434C746.902 40.434 742.105 45.231 742.105 51.135ZM742.884 55.112C743.335 56.219 743.95 57.244 744.729 58.146L749.034 55.522C748.132 54.743 747.476 53.677 747.189 52.488L742.884 55.112ZM747.681 51.135V51.422L755.43 46.707C754.651 46.256 753.749 46.01 752.806 46.01C749.977 46.01 747.681 48.306 747.681 51.135ZM747.763 52.16C748.009 53.349 748.706 54.415 749.649 55.153L757.849 50.151C757.603 48.962 756.947 47.896 756.004 47.117L747.763 52.16ZM756.619 46.789C757.521 47.568 758.177 48.593 758.423 49.823L762.769 47.158C762.318 46.051 761.662 45.067 760.924 44.165L756.619 46.789ZM765.542 62V40.27H766.198V46.461C767.1 44.124 768.863 42.197 771.118 41.09V40.27H771.774V40.762C772.922 40.311 774.152 40.065 775.464 40.065C780.917 40.065 785.386 44.534 785.386 49.987V62H784.73V49.987C784.73 44.903 780.548 40.721 775.464 40.721C774.152 40.721 772.922 41.008 771.774 41.5V47.691C772.553 46.461 773.906 45.641 775.464 45.641C777.842 45.641 779.81 47.609 779.81 49.987V62H779.154V49.987C779.154 47.978 777.473 46.297 775.464 46.297C773.455 46.297 771.774 47.978 771.774 49.987V62H771.118V41.828C768.207 43.386 766.198 46.461 766.198 49.987V62H765.542ZM790.894 40.926H787.655V40.27H790.894V33.3H791.55V40.27H796.47V33.3H797.126V40.27H800.365V40.926H797.126V45.846H800.365V46.502H797.126V62H796.47V46.502H791.55V62H790.894V46.502H787.655V45.846H790.894V40.926ZM796.47 40.926H791.55V45.846H796.47V40.926ZM818.712 61.344H829.577V62H812.48V33.3H829.577V33.956H818.712V38.876H829.577V39.532H818.712V44.534H826.625V45.19H818.712V50.11H826.625V50.766H818.712V55.768H829.577V56.424H818.712V61.344ZM813.136 39.532V44.534H818.056V39.532H813.136ZM818.056 56.424H813.136V61.344H818.056V56.424ZM818.056 33.956H813.136V38.876H818.056V33.956ZM818.056 45.19H813.136V50.11H818.056V45.19ZM813.136 50.766V55.768H818.056V50.766H813.136ZM838.171 40.27L841.738 45.682L845.346 40.27H846.166L842.148 46.297L844.936 50.52L851.742 40.27H852.562L845.346 51.135L852.562 62H851.742L844.936 51.75L842.148 55.973L846.166 62H845.346L841.779 56.588L838.171 62H837.351L841.369 55.973L838.54 51.75L831.775 62H830.955L838.13 51.135L830.955 40.27H831.775L838.54 50.52L841.328 46.297L837.351 40.27H838.171ZM841.738 55.358L844.526 51.135L841.738 46.912L838.95 51.135L841.738 55.358ZM852.077 51.135C852.077 44.862 857.161 39.778 863.434 39.778C868.436 39.778 872.659 42.976 874.176 47.486L860.851 55.563C861.63 56.014 862.491 56.26 863.434 56.26C865.484 56.26 867.247 55.03 868.067 53.308L868.682 53.595C867.78 55.563 865.771 56.916 863.434 56.916C862.245 56.916 861.138 56.547 860.236 55.932L855.808 58.638C857.735 60.606 860.441 61.836 863.434 61.836C867.698 61.836 871.429 59.294 873.151 55.645L873.725 55.932C871.921 59.827 867.985 62.492 863.434 62.492C857.161 62.492 852.077 57.408 852.077 51.135ZM852.733 51.135C852.733 52.324 852.938 53.431 853.266 54.497L857.694 51.791C857.653 51.586 857.653 51.34 857.653 51.135C857.653 47.937 860.236 45.354 863.434 45.354C864.623 45.354 865.771 45.723 866.673 46.338L871.06 43.673C869.133 41.664 866.427 40.434 863.434 40.434C857.53 40.434 852.733 45.231 852.733 51.135ZM853.512 55.112C853.963 56.219 854.578 57.244 855.357 58.146L859.662 55.522C858.76 54.743 858.104 53.677 857.817 52.488L853.512 55.112ZM858.309 51.135V51.422L866.058 46.707C865.279 46.256 864.377 46.01 863.434 46.01C860.605 46.01 858.309 48.306 858.309 51.135ZM858.391 52.16C858.637 53.349 859.334 54.415 860.277 55.153L868.477 50.151C868.231 48.962 867.575 47.896 866.632 47.117L858.391 52.16ZM867.247 46.789C868.149 47.568 868.805 48.593 869.051 49.823L873.397 47.158C872.946 46.051 872.29 45.067 871.552 44.165L867.247 46.789ZM881.746 62V42.689C879.532 44.042 876.826 46.83 876.826 51.709V62H876.17V40.27H876.826V47.732C877.851 44.903 879.45 43.304 881.746 41.951V40.27H882.402V41.582C884.042 40.762 885.805 40.352 887.527 40.352V41.008C885.805 41.008 884.001 41.459 882.402 42.32V49.044C883.345 47.199 885.313 45.928 887.527 45.928V46.584C884.657 46.584 882.402 48.88 882.402 51.709V62H881.746ZM900.408 45.846V46.502H899.219C896.718 46.502 894.586 48.634 894.586 51.135C894.586 53.636 896.718 55.768 899.219 55.768H900.408V56.424H899.219C896.349 56.424 893.93 54.005 893.93 51.135C893.93 48.265 896.349 45.846 899.219 45.846H900.408ZM900.408 40.926H899.219C893.602 40.926 889.01 45.518 889.01 51.135C889.01 56.752 893.602 61.344 899.219 61.344H900.408V62H899.219C893.233 62 888.354 57.121 888.354 51.135C888.354 45.149 893.233 40.27 899.219 40.27H900.408V40.926ZM903.877 62V40.27H904.533V62H903.877ZM910.109 40.27V62H909.453V40.27H910.109ZM909.453 38.138V31.25H910.109V38.138H909.453ZM904.533 31.25V38.138H903.877V31.25H904.533ZM913.303 46.953C913.303 42.976 916.501 39.778 920.478 39.778C923.43 39.778 925.972 41.582 927.079 44.124L926.464 44.411C925.48 42.074 923.143 40.434 920.478 40.434C916.87 40.434 913.959 43.345 913.959 46.953C913.959 50.028 916.05 52.57 918.92 53.308L920.724 53.759C921.421 53.923 921.913 54.579 921.913 55.317C921.913 56.219 921.216 56.916 920.314 56.916C919.617 56.916 919.043 56.506 918.797 55.85L919.412 55.604C919.535 55.973 919.863 56.26 920.314 56.26C920.847 56.26 921.257 55.85 921.257 55.317C921.257 54.866 921.011 54.497 920.56 54.374L918.715 53.923C915.599 53.144 913.303 50.315 913.303 46.953ZM913.713 58.187L914.328 57.9C915.312 60.237 917.608 61.836 920.314 61.836C923.922 61.836 926.833 58.925 926.833 55.317C926.833 52.242 924.742 49.7 921.872 48.962L920.068 48.511C919.33 48.306 918.879 47.691 918.879 46.953C918.879 46.051 919.576 45.354 920.478 45.354C921.175 45.354 921.749 45.805 921.954 46.42L921.38 46.666C921.257 46.297 920.888 46.01 920.478 46.01C919.945 46.01 919.535 46.42 919.535 46.953C919.535 47.404 919.781 47.773 920.232 47.896L922.077 48.347C925.234 49.126 927.489 51.955 927.489 55.317C927.489 59.294 924.291 62.492 920.314 62.492C917.362 62.492 914.82 60.729 913.713 58.187ZM929.473 51.135C929.473 44.862 934.557 39.778 940.83 39.778C945.832 39.778 950.055 42.976 951.572 47.486L938.247 55.563C939.026 56.014 939.887 56.26 940.83 56.26C942.88 56.26 944.643 55.03 945.463 53.308L946.078 53.595C945.176 55.563 943.167 56.916 940.83 56.916C939.641 56.916 938.534 56.547 937.632 55.932L933.204 58.638C935.131 60.606 937.837 61.836 940.83 61.836C945.094 61.836 948.825 59.294 950.547 55.645L951.121 55.932C949.317 59.827 945.381 62.492 940.83 62.492C934.557 62.492 929.473 57.408 929.473 51.135ZM930.129 51.135C930.129 52.324 930.334 53.431 930.662 54.497L935.09 51.791C935.049 51.586 935.049 51.34 935.049 51.135C935.049 47.937 937.632 45.354 940.83 45.354C942.019 45.354 943.167 45.723 944.069 46.338L948.456 43.673C946.529 41.664 943.823 40.434 940.83 40.434C934.926 40.434 930.129 45.231 930.129 51.135ZM930.908 55.112C931.359 56.219 931.974 57.244 932.753 58.146L937.058 55.522C936.156 54.743 935.5 53.677 935.213 52.488L930.908 55.112ZM935.705 51.135V51.422L943.454 46.707C942.675 46.256 941.773 46.01 940.83 46.01C938.001 46.01 935.705 48.306 935.705 51.135ZM935.787 52.16C936.033 53.349 936.73 54.415 937.673 55.153L945.873 50.151C945.627 48.962 944.971 47.896 944.028 47.117L935.787 52.16ZM944.643 46.789C945.545 47.568 946.201 48.593 946.447 49.823L950.793 47.158C950.342 46.051 949.686 45.067 948.948 44.165L944.643 46.789ZM961.477 41.746C961.477 36.826 965.495 32.849 970.579 32.849C974.515 32.849 977.836 35.268 979.107 38.671L978.533 38.917C977.344 35.719 974.228 33.423 970.579 33.464C965.905 33.505 962.092 37.154 962.133 41.746C962.174 45.6 964.798 48.88 968.447 49.7L971.399 50.356C972.875 50.684 973.982 52.037 973.982 53.554C973.982 55.399 972.424 56.875 970.456 56.875C968.775 56.875 967.381 55.768 967.012 54.292L967.627 54.005C967.873 55.276 969.021 56.301 970.456 56.26C972.055 56.219 973.285 55.03 973.326 53.554C973.367 52.324 972.465 51.258 971.194 50.971L968.324 50.356C964.306 49.495 961.477 45.887 961.477 41.746ZM961.887 56.629L962.502 56.342C963.65 59.581 966.766 61.877 970.456 61.836C975.13 61.795 978.943 58.146 978.902 53.554C978.861 49.7 976.237 46.42 972.588 45.6L969.636 44.944C968.16 44.616 967.053 43.263 967.053 41.746C967.053 39.901 968.611 38.425 970.579 38.425C972.26 38.425 973.654 39.491 973.982 40.967L973.408 41.254C973.162 39.983 971.973 38.999 970.579 39.04C968.98 39.081 967.75 40.27 967.709 41.746C967.668 42.976 968.57 44.042 969.841 44.329L972.711 44.944C976.729 45.805 979.558 49.413 979.558 53.554C979.558 58.474 975.54 62.451 970.456 62.451C966.479 62.451 963.158 60.032 961.887 56.629ZM984.363 40.926H981.124V40.27H984.363V33.3H985.019V40.27H989.939V33.3H990.595V40.27H993.834V40.926H990.595V45.846H993.834V46.502H990.595V62H989.939V46.502H985.019V62H984.363V46.502H981.124V45.846H984.363V40.926ZM989.939 40.926H985.019V45.846H989.939V40.926ZM1012.31 42.115V60.155C1015.06 58.474 1017.23 55.071 1017.23 51.135C1017.23 47.199 1015.06 43.796 1012.31 42.115ZM1006.53 39.778C1008.38 39.778 1010.1 40.229 1011.66 41.008V40.27H1012.31V41.377C1014.61 42.648 1016.37 44.944 1017.23 47.322V40.27H1017.89V62H1017.23V54.907C1016.41 57.244 1014.61 59.663 1012.31 60.934V62H1011.66V61.262C1010.1 62.041 1008.38 62.492 1006.53 62.492C1000.26 62.492 995.177 57.408 995.177 51.135C995.177 44.862 1000.26 39.778 1006.53 39.778ZM1006.53 61.836C1008.38 61.836 1010.14 61.385 1011.66 60.565V53.841C1010.67 55.645 1008.75 56.916 1006.53 56.916C1003.34 56.916 1000.75 54.333 1000.75 51.135C1000.75 47.937 1003.34 45.354 1006.53 45.354C1008.75 45.354 1010.67 46.625 1011.66 48.47V41.746C1010.14 40.926 1008.38 40.434 1006.53 40.434C1000.63 40.434 995.833 45.231 995.833 51.135C995.833 57.039 1000.63 61.836 1006.53 61.836ZM1006.53 56.26C1009.4 56.26 1011.66 53.964 1011.66 51.135C1011.66 48.306 1009.4 46.01 1006.53 46.01C1003.7 46.01 1001.41 48.306 1001.41 51.135C1001.41 53.964 1003.7 56.26 1006.53 56.26ZM1024.12 40.926H1020.88V40.27H1024.12V33.3H1024.78V40.27H1029.7V33.3H1030.35V40.27H1033.59V40.926H1030.35V45.846H1033.59V46.502H1030.35V62H1029.7V46.502H1024.78V62H1024.12V46.502H1020.88V45.846H1024.12V40.926ZM1029.7 40.926H1024.78V45.846H1029.7V40.926ZM1034.94 51.135C1034.94 44.862 1040.02 39.778 1046.29 39.778C1051.29 39.778 1055.52 42.976 1057.03 47.486L1043.71 55.563C1044.49 56.014 1045.35 56.26 1046.29 56.26C1048.34 56.26 1050.11 55.03 1050.93 53.308L1051.54 53.595C1050.64 55.563 1048.63 56.916 1046.29 56.916C1045.1 56.916 1044 56.547 1043.09 55.932L1038.67 58.638C1040.59 60.606 1043.3 61.836 1046.29 61.836C1050.56 61.836 1054.29 59.294 1056.01 55.645L1056.58 55.932C1054.78 59.827 1050.84 62.492 1046.29 62.492C1040.02 62.492 1034.94 57.408 1034.94 51.135ZM1035.59 51.135C1035.59 52.324 1035.8 53.431 1036.12 54.497L1040.55 51.791C1040.51 51.586 1040.51 51.34 1040.51 51.135C1040.51 47.937 1043.09 45.354 1046.29 45.354C1047.48 45.354 1048.63 45.723 1049.53 46.338L1053.92 43.673C1051.99 41.664 1049.29 40.434 1046.29 40.434C1040.39 40.434 1035.59 45.231 1035.59 51.135ZM1036.37 55.112C1036.82 56.219 1037.44 57.244 1038.22 58.146L1042.52 55.522C1041.62 54.743 1040.96 53.677 1040.68 52.488L1036.37 55.112ZM1041.17 51.135V51.422L1048.92 46.707C1048.14 46.256 1047.24 46.01 1046.29 46.01C1043.46 46.01 1041.17 48.306 1041.17 51.135ZM1041.25 52.16C1041.5 53.349 1042.19 54.415 1043.14 55.153L1051.34 50.151C1051.09 48.962 1050.43 47.896 1049.49 47.117L1041.25 52.16ZM1050.11 46.789C1051.01 47.568 1051.66 48.593 1051.91 49.823L1056.26 47.158C1055.8 46.051 1055.15 45.067 1054.41 44.165L1050.11 46.789ZM1086.17 55.522L1083.54 62H1082.89L1075.88 44.698L1072.84 62H1072.19L1075.43 43.55L1071.78 34.448L1066.94 62H1066.28L1071.33 33.3H1071.98L1075.63 42.402L1077.23 33.3H1077.89L1086.17 53.882L1094.45 33.3H1095.11L1096.71 42.361L1100.35 33.3H1101.01L1106.05 62H1105.4L1100.56 34.448L1096.91 43.509L1100.15 62H1099.49L1096.46 44.616L1089.45 62H1088.79L1086.17 55.522ZM1089.12 61.18L1096.25 43.468L1094.66 34.448L1086.5 54.702L1089.12 61.18ZM1085.84 54.702L1077.68 34.448L1076.08 43.55L1083.22 61.18L1085.84 54.702ZM1124.42 42.115V60.155C1127.17 58.474 1129.34 55.071 1129.34 51.135C1129.34 47.199 1127.17 43.796 1124.42 42.115ZM1118.64 39.778C1120.49 39.778 1122.21 40.229 1123.77 41.008V40.27H1124.42V41.377C1126.72 42.648 1128.48 44.944 1129.34 47.322V40.27H1130V62H1129.34V54.907C1128.52 57.244 1126.72 59.663 1124.42 60.934V62H1123.77V61.262C1122.21 62.041 1120.49 62.492 1118.64 62.492C1112.37 62.492 1107.29 57.408 1107.29 51.135C1107.29 44.862 1112.37 39.778 1118.64 39.778ZM1118.64 61.836C1120.49 61.836 1122.25 61.385 1123.77 60.565V53.841C1122.78 55.645 1120.86 56.916 1118.64 56.916C1115.45 56.916 1112.86 54.333 1112.86 51.135C1112.86 47.937 1115.45 45.354 1118.64 45.354C1120.86 45.354 1122.78 46.625 1123.77 48.47V41.746C1122.25 40.926 1120.49 40.434 1118.64 40.434C1112.74 40.434 1107.94 45.231 1107.94 51.135C1107.94 57.039 1112.74 61.836 1118.64 61.836ZM1118.64 56.26C1121.51 56.26 1123.77 53.964 1123.77 51.135C1123.77 48.306 1121.51 46.01 1118.64 46.01C1115.81 46.01 1113.52 48.306 1113.52 51.135C1113.52 53.964 1115.81 56.26 1118.64 56.26ZM1134.18 62V40.27H1134.84V46.461C1135.74 44.124 1137.5 42.197 1139.76 41.09V40.27H1140.41V40.762C1141.56 40.311 1142.79 40.065 1144.1 40.065C1149.56 40.065 1154.03 44.534 1154.03 49.987V62H1153.37V49.987C1153.37 44.903 1149.19 40.721 1144.1 40.721C1142.79 40.721 1141.56 41.008 1140.41 41.5V47.691C1141.19 46.461 1142.55 45.641 1144.1 45.641C1146.48 45.641 1148.45 47.609 1148.45 49.987V62H1147.79V49.987C1147.79 47.978 1146.11 46.297 1144.1 46.297C1142.09 46.297 1140.41 47.978 1140.41 49.987V62H1139.76V41.828C1136.85 43.386 1134.84 46.461 1134.84 49.987V62H1134.18ZM1173.79 42.115V60.155C1176.54 58.474 1178.71 55.071 1178.71 51.135C1178.71 47.199 1176.54 43.796 1173.79 42.115ZM1168.01 39.778C1169.86 39.778 1171.58 40.229 1173.14 41.008V40.27H1173.79V41.377C1176.09 42.648 1177.85 44.944 1178.71 47.322V40.27H1179.37V62H1178.71V54.907C1177.89 57.244 1176.09 59.663 1173.79 60.934V62H1173.14V61.262C1171.58 62.041 1169.86 62.492 1168.01 62.492C1161.74 62.492 1156.65 57.408 1156.65 51.135C1156.65 44.862 1161.74 39.778 1168.01 39.778ZM1168.01 61.836C1169.86 61.836 1171.62 61.385 1173.14 60.565V53.841C1172.15 55.645 1170.23 56.916 1168.01 56.916C1164.81 56.916 1162.23 54.333 1162.23 51.135C1162.23 47.937 1164.81 45.354 1168.01 45.354C1170.23 45.354 1172.15 46.625 1173.14 48.47V41.746C1171.62 40.926 1169.86 40.434 1168.01 40.434C1162.11 40.434 1157.31 45.231 1157.31 51.135C1157.31 57.039 1162.11 61.836 1168.01 61.836ZM1168.01 56.26C1170.88 56.26 1173.14 53.964 1173.14 51.135C1173.14 48.306 1170.88 46.01 1168.01 46.01C1165.18 46.01 1162.89 48.306 1162.89 51.135C1162.89 53.964 1165.18 56.26 1168.01 56.26ZM1182.36 51.135C1182.36 44.862 1187.44 39.778 1193.72 39.778C1195.56 39.778 1197.28 40.229 1198.84 41.008V40.27H1199.5V41.377C1201.79 42.648 1203.56 44.944 1204.42 47.322V40.27H1205.07V60.155C1205.07 66.428 1200.03 71.512 1193.72 71.512C1189.82 71.512 1186.38 69.503 1184.29 66.51L1184.86 66.182C1186.83 69.011 1190.07 70.856 1193.72 70.856C1199.7 70.856 1204.42 66.1 1204.42 60.155V54.907C1203.6 57.285 1201.75 59.663 1199.42 60.934C1199.01 63.722 1196.67 65.936 1193.72 65.936C1191.87 65.936 1190.19 65.034 1189.13 63.722L1189.7 63.394C1190.6 64.501 1192.12 65.28 1193.72 65.28C1196.18 65.28 1198.19 63.599 1198.72 61.344C1197.2 62.041 1195.48 62.492 1193.72 62.492C1187.44 62.492 1182.36 57.408 1182.36 51.135ZM1183.02 51.135C1183.02 57.039 1187.81 61.836 1193.72 61.836C1195.56 61.836 1197.28 61.385 1198.8 60.565C1198.84 60.278 1198.84 59.745 1198.84 59.212V53.841C1197.86 55.645 1195.93 56.916 1193.72 56.916C1190.52 56.916 1187.94 54.333 1187.94 51.135C1187.94 47.937 1190.52 45.354 1193.72 45.354C1195.93 45.354 1197.86 46.625 1198.84 48.47V41.746C1197.33 40.926 1195.56 40.434 1193.72 40.434C1187.81 40.434 1183.02 45.231 1183.02 51.135ZM1188.59 51.135C1188.59 53.964 1190.89 56.26 1193.72 56.26C1196.59 56.26 1198.84 53.964 1198.84 51.135C1198.84 48.306 1196.59 46.01 1193.72 46.01C1190.89 46.01 1188.59 48.306 1188.59 51.135ZM1199.5 42.115V60.155C1202.25 58.474 1204.42 55.071 1204.42 51.135C1204.42 47.199 1202.25 43.796 1199.5 42.115ZM1207.98 51.135C1207.98 44.862 1213.07 39.778 1219.34 39.778C1224.34 39.778 1228.57 42.976 1230.08 47.486L1216.76 55.563C1217.54 56.014 1218.4 56.26 1219.34 56.26C1221.39 56.26 1223.15 55.03 1223.97 53.308L1224.59 53.595C1223.69 55.563 1221.68 56.916 1219.34 56.916C1218.15 56.916 1217.05 56.547 1216.14 55.932L1211.72 58.638C1213.64 60.606 1216.35 61.836 1219.34 61.836C1223.61 61.836 1227.34 59.294 1229.06 55.645L1229.63 55.932C1227.83 59.827 1223.89 62.492 1219.34 62.492C1213.07 62.492 1207.98 57.408 1207.98 51.135ZM1208.64 51.135C1208.64 52.324 1208.85 53.431 1209.17 54.497L1213.6 51.791C1213.56 51.586 1213.56 51.34 1213.56 51.135C1213.56 47.937 1216.14 45.354 1219.34 45.354C1220.53 45.354 1221.68 45.723 1222.58 46.338L1226.97 43.673C1225.04 41.664 1222.33 40.434 1219.34 40.434C1213.44 40.434 1208.64 45.231 1208.64 51.135ZM1209.42 55.112C1209.87 56.219 1210.49 57.244 1211.26 58.146L1215.57 55.522C1214.67 54.743 1214.01 53.677 1213.72 52.488L1209.42 55.112ZM1214.22 51.135V51.422L1221.97 46.707C1221.19 46.256 1220.28 46.01 1219.34 46.01C1216.51 46.01 1214.22 48.306 1214.22 51.135ZM1214.3 52.16C1214.54 53.349 1215.24 54.415 1216.18 55.153L1224.38 50.151C1224.14 48.962 1223.48 47.896 1222.54 47.117L1214.3 52.16ZM1223.15 46.789C1224.06 47.568 1224.71 48.593 1224.96 49.823L1229.3 47.158C1228.85 46.051 1228.2 45.067 1227.46 44.165L1223.15 46.789ZM1232.08 62V40.27H1232.73V45.969C1233.63 43.714 1235.44 41.869 1237.65 40.885V40.27H1238.31V40.639C1239.25 40.311 1240.32 40.106 1241.38 40.106C1243.76 40.106 1245.93 41.008 1247.57 42.484C1249.21 41.008 1251.39 40.106 1253.77 40.106C1258.89 40.106 1263.07 44.288 1263.07 49.413V62H1262.42V49.413C1262.42 44.657 1258.52 40.762 1253.77 40.762C1251.59 40.762 1249.58 41.582 1248.07 42.935C1249.3 44.206 1250.16 45.805 1250.53 47.609C1251.14 46.461 1252.37 45.682 1253.77 45.682C1255.82 45.682 1257.5 47.363 1257.5 49.413V62H1256.84V49.413C1256.84 47.732 1255.45 46.338 1253.77 46.338C1252.08 46.338 1250.69 47.732 1250.69 49.413V62H1250.03V49.413C1250.03 47.076 1249.09 44.944 1247.57 43.386C1246.06 44.944 1245.11 47.076 1245.11 49.413V62H1244.46V49.413C1244.46 47.732 1243.06 46.338 1241.38 46.338C1239.7 46.338 1238.31 47.732 1238.31 49.413V62H1237.65V41.623C1234.74 43.017 1232.73 46.01 1232.73 49.413V62H1232.08ZM1238.31 41.336V47.322C1238.96 46.338 1240.11 45.682 1241.38 45.682C1242.78 45.682 1244.01 46.461 1244.62 47.609C1244.99 45.805 1245.85 44.206 1247.08 42.935C1245.57 41.582 1243.56 40.762 1241.38 40.762C1240.32 40.762 1239.25 40.967 1238.31 41.336ZM1265.72 51.135C1265.72 44.862 1270.8 39.778 1277.08 39.778C1282.08 39.778 1286.3 42.976 1287.82 47.486L1274.49 55.563C1275.27 56.014 1276.13 56.26 1277.08 56.26C1279.13 56.26 1280.89 55.03 1281.71 53.308L1282.33 53.595C1281.42 55.563 1279.41 56.916 1277.08 56.916C1275.89 56.916 1274.78 56.547 1273.88 55.932L1269.45 58.638C1271.38 60.606 1274.08 61.836 1277.08 61.836C1281.34 61.836 1285.07 59.294 1286.79 55.645L1287.37 55.932C1285.56 59.827 1281.63 62.492 1277.08 62.492C1270.8 62.492 1265.72 57.408 1265.72 51.135ZM1266.38 51.135C1266.38 52.324 1266.58 53.431 1266.91 54.497L1271.34 51.791C1271.3 51.586 1271.3 51.34 1271.3 51.135C1271.3 47.937 1273.88 45.354 1277.08 45.354C1278.27 45.354 1279.41 45.723 1280.32 46.338L1284.7 43.673C1282.78 41.664 1280.07 40.434 1277.08 40.434C1271.17 40.434 1266.38 45.231 1266.38 51.135ZM1267.16 55.112C1267.61 56.219 1268.22 57.244 1269 58.146L1273.31 55.522C1272.4 54.743 1271.75 53.677 1271.46 52.488L1267.16 55.112ZM1271.95 51.135V51.422L1279.7 46.707C1278.92 46.256 1278.02 46.01 1277.08 46.01C1274.25 46.01 1271.95 48.306 1271.95 51.135ZM1272.03 52.16C1272.28 53.349 1272.98 54.415 1273.92 55.153L1282.12 50.151C1281.87 48.962 1281.22 47.896 1280.28 47.117L1272.03 52.16ZM1280.89 46.789C1281.79 47.568 1282.45 48.593 1282.69 49.823L1287.04 47.158C1286.59 46.051 1285.93 45.067 1285.2 44.165L1280.89 46.789ZM1289.81 62V40.27H1290.47V46.461C1291.37 44.124 1293.13 42.197 1295.39 41.09V40.27H1296.05V40.762C1297.19 40.311 1298.42 40.065 1299.74 40.065C1305.19 40.065 1309.66 44.534 1309.66 49.987V62H1309V49.987C1309 44.903 1304.82 40.721 1299.74 40.721C1298.42 40.721 1297.19 41.008 1296.05 41.5V47.691C1296.82 46.461 1298.18 45.641 1299.74 45.641C1302.11 45.641 1304.08 47.609 1304.08 49.987V62H1303.43V49.987C1303.43 47.978 1301.74 46.297 1299.74 46.297C1297.73 46.297 1296.05 47.978 1296.05 49.987V62H1295.39V41.828C1292.48 43.386 1290.47 46.461 1290.47 49.987V62H1289.81ZM1315.17 40.926H1311.93V40.27H1315.17V33.3H1315.82V40.27H1320.74V33.3H1321.4V40.27H1324.64V40.926H1321.4V45.846H1324.64V46.502H1321.4V62H1320.74V46.502H1315.82V62H1315.17V46.502H1311.93V45.846H1315.17V40.926ZM1320.74 40.926H1315.82V45.846H1320.74V40.926ZM1342.98 61.344H1353.85V62H1336.75V33.3H1353.85V33.956H1342.98V38.876H1353.85V39.532H1342.98V44.534H1350.9V45.19H1342.98V50.11H1350.9V50.766H1342.98V55.768H1353.85V56.424H1342.98V61.344ZM1337.41 39.532V44.534H1342.33V39.532H1337.41ZM1342.33 56.424H1337.41V61.344H1342.33V56.424ZM1342.33 33.956H1337.41V38.876H1342.33V33.956ZM1342.33 45.19H1337.41V50.11H1342.33V45.19ZM1337.41 50.766V55.768H1342.33V50.766H1337.41ZM1362.44 40.27L1366.01 45.682L1369.62 40.27H1370.44L1366.42 46.297L1369.21 50.52L1376.01 40.27H1376.83L1369.62 51.135L1376.83 62H1376.01L1369.21 51.75L1366.42 55.973L1370.44 62H1369.62L1366.05 56.588L1362.44 62H1361.62L1365.64 55.973L1362.81 51.75L1356.05 62H1355.23L1362.4 51.135L1355.23 40.27H1356.05L1362.81 50.52L1365.6 46.297L1361.62 40.27H1362.44ZM1366.01 55.358L1368.8 51.135L1366.01 46.912L1363.22 51.135L1366.01 55.358ZM1376.35 51.135C1376.35 44.862 1381.43 39.778 1387.71 39.778C1392.71 39.778 1396.93 42.976 1398.45 47.486L1385.12 55.563C1385.9 56.014 1386.76 56.26 1387.71 56.26C1389.76 56.26 1391.52 55.03 1392.34 53.308L1392.95 53.595C1392.05 55.563 1390.04 56.916 1387.71 56.916C1386.52 56.916 1385.41 56.547 1384.51 55.932L1380.08 58.638C1382.01 60.606 1384.71 61.836 1387.71 61.836C1391.97 61.836 1395.7 59.294 1397.42 55.645L1398 55.932C1396.19 59.827 1392.26 62.492 1387.71 62.492C1381.43 62.492 1376.35 57.408 1376.35 51.135ZM1377 51.135C1377 52.324 1377.21 53.431 1377.54 54.497L1381.97 51.791C1381.92 51.586 1381.92 51.34 1381.92 51.135C1381.92 47.937 1384.51 45.354 1387.71 45.354C1388.89 45.354 1390.04 45.723 1390.94 46.338L1395.33 43.673C1393.4 41.664 1390.7 40.434 1387.71 40.434C1381.8 40.434 1377 45.231 1377 51.135ZM1377.78 55.112C1378.23 56.219 1378.85 57.244 1379.63 58.146L1383.93 55.522C1383.03 54.743 1382.38 53.677 1382.09 52.488L1377.78 55.112ZM1382.58 51.135V51.422L1390.33 46.707C1389.55 46.256 1388.65 46.01 1387.71 46.01C1384.88 46.01 1382.58 48.306 1382.58 51.135ZM1382.66 52.16C1382.91 53.349 1383.61 54.415 1384.55 55.153L1392.75 50.151C1392.5 48.962 1391.85 47.896 1390.9 47.117L1382.66 52.16ZM1391.52 46.789C1392.42 47.568 1393.08 48.593 1393.32 49.823L1397.67 47.158C1397.22 46.051 1396.56 45.067 1395.82 44.165L1391.52 46.789ZM1406.02 62V42.689C1403.8 44.042 1401.1 46.83 1401.1 51.709V62H1400.44V40.27H1401.1V47.732C1402.12 44.903 1403.72 43.304 1406.02 41.951V40.27H1406.67V41.582C1408.31 40.762 1410.08 40.352 1411.8 40.352V41.008C1410.08 41.008 1408.27 41.459 1406.67 42.32V49.044C1407.62 47.199 1409.58 45.928 1411.8 45.928V46.584C1408.93 46.584 1406.67 48.88 1406.67 51.709V62H1406.02ZM1424.68 45.846V46.502H1423.49C1420.99 46.502 1418.86 48.634 1418.86 51.135C1418.86 53.636 1420.99 55.768 1423.49 55.768H1424.68V56.424H1423.49C1420.62 56.424 1418.2 54.005 1418.2 51.135C1418.2 48.265 1420.62 45.846 1423.49 45.846H1424.68ZM1424.68 40.926H1423.49C1417.87 40.926 1413.28 45.518 1413.28 51.135C1413.28 56.752 1417.87 61.344 1423.49 61.344H1424.68V62H1423.49C1417.5 62 1412.63 57.121 1412.63 51.135C1412.63 45.149 1417.5 40.27 1423.49 40.27H1424.68V40.926ZM1428.15 62V40.27H1428.8V62H1428.15ZM1434.38 40.27V62H1433.72V40.27H1434.38ZM1433.72 38.138V31.25H1434.38V38.138H1433.72ZM1428.8 31.25V38.138H1428.15V31.25H1428.8ZM1437.57 46.953C1437.57 42.976 1440.77 39.778 1444.75 39.778C1447.7 39.778 1450.24 41.582 1451.35 44.124L1450.74 44.411C1449.75 42.074 1447.41 40.434 1444.75 40.434C1441.14 40.434 1438.23 43.345 1438.23 46.953C1438.23 50.028 1440.32 52.57 1443.19 53.308L1445 53.759C1445.69 53.923 1446.18 54.579 1446.18 55.317C1446.18 56.219 1445.49 56.916 1444.59 56.916C1443.89 56.916 1443.31 56.506 1443.07 55.85L1443.68 55.604C1443.81 55.973 1444.13 56.26 1444.59 56.26C1445.12 56.26 1445.53 55.85 1445.53 55.317C1445.53 54.866 1445.28 54.497 1444.83 54.374L1442.99 53.923C1439.87 53.144 1437.57 50.315 1437.57 46.953ZM1437.98 58.187L1438.6 57.9C1439.58 60.237 1441.88 61.836 1444.59 61.836C1448.19 61.836 1451.1 58.925 1451.1 55.317C1451.1 52.242 1449.01 49.7 1446.14 48.962L1444.34 48.511C1443.6 48.306 1443.15 47.691 1443.15 46.953C1443.15 46.051 1443.85 45.354 1444.75 45.354C1445.45 45.354 1446.02 45.805 1446.23 46.42L1445.65 46.666C1445.53 46.297 1445.16 46.01 1444.75 46.01C1444.22 46.01 1443.81 46.42 1443.81 46.953C1443.81 47.404 1444.05 47.773 1444.5 47.896L1446.35 48.347C1449.51 49.126 1451.76 51.955 1451.76 55.317C1451.76 59.294 1448.56 62.492 1444.59 62.492C1441.63 62.492 1439.09 60.729 1437.98 58.187ZM1453.74 51.135C1453.74 44.862 1458.83 39.778 1465.1 39.778C1470.1 39.778 1474.33 42.976 1475.84 47.486L1462.52 55.563C1463.3 56.014 1464.16 56.26 1465.1 56.26C1467.15 56.26 1468.91 55.03 1469.73 53.308L1470.35 53.595C1469.45 55.563 1467.44 56.916 1465.1 56.916C1463.91 56.916 1462.81 56.547 1461.9 55.932L1457.48 58.638C1459.4 60.606 1462.11 61.836 1465.1 61.836C1469.37 61.836 1473.1 59.294 1474.82 55.645L1475.39 55.932C1473.59 59.827 1469.65 62.492 1465.1 62.492C1458.83 62.492 1453.74 57.408 1453.74 51.135ZM1454.4 51.135C1454.4 52.324 1454.61 53.431 1454.93 54.497L1459.36 51.791C1459.32 51.586 1459.32 51.34 1459.32 51.135C1459.32 47.937 1461.9 45.354 1465.1 45.354C1466.29 45.354 1467.44 45.723 1468.34 46.338L1472.73 43.673C1470.8 41.664 1468.09 40.434 1465.1 40.434C1459.2 40.434 1454.4 45.231 1454.4 51.135ZM1455.18 55.112C1455.63 56.219 1456.25 57.244 1457.02 58.146L1461.33 55.522C1460.43 54.743 1459.77 53.677 1459.48 52.488L1455.18 55.112ZM1459.98 51.135V51.422L1467.73 46.707C1466.95 46.256 1466.04 46.01 1465.1 46.01C1462.27 46.01 1459.98 48.306 1459.98 51.135ZM1460.06 52.16C1460.3 53.349 1461 54.415 1461.94 55.153L1470.14 50.151C1469.9 48.962 1469.24 47.896 1468.3 47.117L1460.06 52.16ZM1468.91 46.789C1469.82 47.568 1470.47 48.593 1470.72 49.823L1475.06 47.158C1474.61 46.051 1473.96 45.067 1473.22 44.165L1468.91 46.789ZM1485.75 41.746C1485.75 36.826 1489.77 32.849 1494.85 32.849C1498.79 32.849 1502.11 35.268 1503.38 38.671L1502.8 38.917C1501.62 35.719 1498.5 33.423 1494.85 33.464C1490.18 33.505 1486.36 37.154 1486.4 41.746C1486.45 45.6 1489.07 48.88 1492.72 49.7L1495.67 50.356C1497.15 50.684 1498.25 52.037 1498.25 53.554C1498.25 55.399 1496.7 56.875 1494.73 56.875C1493.05 56.875 1491.65 55.768 1491.28 54.292L1491.9 54.005C1492.14 55.276 1493.29 56.301 1494.73 56.26C1496.33 56.219 1497.56 55.03 1497.6 53.554C1497.64 52.324 1496.74 51.258 1495.47 50.971L1492.6 50.356C1488.58 49.495 1485.75 45.887 1485.75 41.746ZM1486.16 56.629L1486.77 56.342C1487.92 59.581 1491.04 61.877 1494.73 61.836C1499.4 61.795 1503.21 58.146 1503.17 53.554C1503.13 49.7 1500.51 46.42 1496.86 45.6L1493.91 44.944C1492.43 44.616 1491.32 43.263 1491.32 41.746C1491.32 39.901 1492.88 38.425 1494.85 38.425C1496.53 38.425 1497.93 39.491 1498.25 40.967L1497.68 41.254C1497.43 39.983 1496.24 38.999 1494.85 39.04C1493.25 39.081 1492.02 40.27 1491.98 41.746C1491.94 42.976 1492.84 44.042 1494.11 44.329L1496.98 44.944C1501 45.805 1503.83 49.413 1503.83 53.554C1503.83 58.474 1499.81 62.451 1494.73 62.451C1490.75 62.451 1487.43 60.032 1486.16 56.629ZM1508.63 40.926H1505.4V40.27H1508.63V33.3H1509.29V40.27H1514.21V33.3H1514.87V40.27H1518.11V40.926H1514.87V45.846H1518.11V46.502H1514.87V62H1514.21V46.502H1509.29V62H1508.63V46.502H1505.4V45.846H1508.63V40.926ZM1514.21 40.926H1509.29V45.846H1514.21V40.926ZM1536.59 42.115V60.155C1539.33 58.474 1541.51 55.071 1541.51 51.135C1541.51 47.199 1539.33 43.796 1536.59 42.115ZM1530.81 39.778C1532.65 39.778 1534.37 40.229 1535.93 41.008V40.27H1536.59V41.377C1538.88 42.648 1540.65 44.944 1541.51 47.322V40.27H1542.16V62H1541.51V54.907C1540.69 57.244 1538.88 59.663 1536.59 60.934V62H1535.93V61.262C1534.37 62.041 1532.65 62.492 1530.81 62.492C1524.53 62.492 1519.45 57.408 1519.45 51.135C1519.45 44.862 1524.53 39.778 1530.81 39.778ZM1530.81 61.836C1532.65 61.836 1534.41 61.385 1535.93 60.565V53.841C1534.95 55.645 1533.02 56.916 1530.81 56.916C1527.61 56.916 1525.02 54.333 1525.02 51.135C1525.02 47.937 1527.61 45.354 1530.81 45.354C1533.02 45.354 1534.95 46.625 1535.93 48.47V41.746C1534.41 40.926 1532.65 40.434 1530.81 40.434C1524.9 40.434 1520.1 45.231 1520.1 51.135C1520.1 57.039 1524.9 61.836 1530.81 61.836ZM1530.81 56.26C1533.68 56.26 1535.93 53.964 1535.93 51.135C1535.93 48.306 1533.68 46.01 1530.81 46.01C1527.98 46.01 1525.68 48.306 1525.68 51.135C1525.68 53.964 1527.98 56.26 1530.81 56.26ZM1548.39 40.926H1545.15V40.27H1548.39V33.3H1549.05V40.27H1553.97V33.3H1554.63V40.27H1557.86V40.926H1554.63V45.846H1557.86V46.502H1554.63V62H1553.97V46.502H1549.05V62H1548.39V46.502H1545.15V45.846H1548.39V40.926ZM1553.97 40.926H1549.05V45.846H1553.97V40.926ZM1559.21 51.135C1559.21 44.862 1564.29 39.778 1570.56 39.778C1575.57 39.778 1579.79 42.976 1581.31 47.486L1567.98 55.563C1568.76 56.014 1569.62 56.26 1570.56 56.26C1572.61 56.26 1574.38 55.03 1575.2 53.308L1575.81 53.595C1574.91 55.563 1572.9 56.916 1570.56 56.916C1569.38 56.916 1568.27 56.547 1567.37 55.932L1562.94 58.638C1564.87 60.606 1567.57 61.836 1570.56 61.836C1574.83 61.836 1578.56 59.294 1580.28 55.645L1580.86 55.932C1579.05 59.827 1575.12 62.492 1570.56 62.492C1564.29 62.492 1559.21 57.408 1559.21 51.135ZM1559.86 51.135C1559.86 52.324 1560.07 53.431 1560.4 54.497L1564.82 51.791C1564.78 51.586 1564.78 51.34 1564.78 51.135C1564.78 47.937 1567.37 45.354 1570.56 45.354C1571.75 45.354 1572.9 45.723 1573.8 46.338L1578.19 43.673C1576.26 41.664 1573.56 40.434 1570.56 40.434C1564.66 40.434 1559.86 45.231 1559.86 51.135ZM1560.64 55.112C1561.09 56.219 1561.71 57.244 1562.49 58.146L1566.79 55.522C1565.89 54.743 1565.23 53.677 1564.95 52.488L1560.64 55.112ZM1565.44 51.135V51.422L1573.19 46.707C1572.41 46.256 1571.51 46.01 1570.56 46.01C1567.74 46.01 1565.44 48.306 1565.44 51.135ZM1565.52 52.16C1565.77 53.349 1566.46 54.415 1567.41 55.153L1575.61 50.151C1575.36 48.962 1574.71 47.896 1573.76 47.117L1565.52 52.16ZM1574.38 46.789C1575.28 47.568 1575.94 48.593 1576.18 49.823L1580.53 47.158C1580.08 46.051 1579.42 45.067 1578.68 44.165L1574.38 46.789ZM1610.44 55.522L1607.82 62H1607.16L1600.15 44.698L1597.11 62H1596.46L1599.7 43.55L1596.05 34.448L1591.21 62H1590.55L1595.6 33.3H1596.25L1599.9 42.402L1601.5 33.3H1602.16L1610.44 53.882L1618.72 33.3H1619.38L1620.98 42.361L1624.63 33.3H1625.28L1630.32 62H1629.67L1624.83 34.448L1621.18 43.509L1624.42 62H1623.76L1620.73 44.616L1613.72 62H1613.06L1610.44 55.522ZM1613.39 61.18L1620.53 43.468L1618.93 34.448L1610.77 54.702L1613.39 61.18ZM1610.11 54.702L1601.95 34.448L1600.35 43.55L1607.49 61.18L1610.11 54.702ZM1648.7 42.115V60.155C1651.44 58.474 1653.62 55.071 1653.62 51.135C1653.62 47.199 1651.44 43.796 1648.7 42.115ZM1642.91 39.778C1644.76 39.778 1646.48 40.229 1648.04 41.008V40.27H1648.7V41.377C1650.99 42.648 1652.75 44.944 1653.62 47.322V40.27H1654.27V62H1653.62V54.907C1652.8 57.244 1650.99 59.663 1648.7 60.934V62H1648.04V61.262C1646.48 62.041 1644.76 62.492 1642.91 62.492C1636.64 62.492 1631.56 57.408 1631.56 51.135C1631.56 44.862 1636.64 39.778 1642.91 39.778ZM1642.91 61.836C1644.76 61.836 1646.52 61.385 1648.04 60.565V53.841C1647.06 55.645 1645.13 56.916 1642.91 56.916C1639.72 56.916 1637.13 54.333 1637.13 51.135C1637.13 47.937 1639.72 45.354 1642.91 45.354C1645.13 45.354 1647.06 46.625 1648.04 48.47V41.746C1646.52 40.926 1644.76 40.434 1642.91 40.434C1637.01 40.434 1632.21 45.231 1632.21 51.135C1632.21 57.039 1637.01 61.836 1642.91 61.836ZM1642.91 56.26C1645.78 56.26 1648.04 53.964 1648.04 51.135C1648.04 48.306 1645.78 46.01 1642.91 46.01C1640.09 46.01 1637.79 48.306 1637.79 51.135C1637.79 53.964 1640.09 56.26 1642.91 56.26ZM1658.45 62V40.27H1659.11V46.461C1660.01 44.124 1661.77 42.197 1664.03 41.09V40.27H1664.68V40.762C1665.83 40.311 1667.06 40.065 1668.37 40.065C1673.83 40.065 1678.3 44.534 1678.3 49.987V62H1677.64V49.987C1677.64 44.903 1673.46 40.721 1668.37 40.721C1667.06 40.721 1665.83 41.008 1664.68 41.5V47.691C1665.46 46.461 1666.82 45.641 1668.37 45.641C1670.75 45.641 1672.72 47.609 1672.72 49.987V62H1672.06V49.987C1672.06 47.978 1670.38 46.297 1668.37 46.297C1666.37 46.297 1664.68 47.978 1664.68 49.987V62H1664.03V41.828C1661.12 43.386 1659.11 46.461 1659.11 49.987V62H1658.45ZM1698.06 42.115V60.155C1700.81 58.474 1702.98 55.071 1702.98 51.135C1702.98 47.199 1700.81 43.796 1698.06 42.115ZM1692.28 39.778C1694.13 39.778 1695.85 40.229 1697.41 41.008V40.27H1698.06V41.377C1700.36 42.648 1702.12 44.944 1702.98 47.322V40.27H1703.64V62H1702.98V54.907C1702.16 57.244 1700.36 59.663 1698.06 60.934V62H1697.41V61.262C1695.85 62.041 1694.13 62.492 1692.28 62.492C1686.01 62.492 1680.93 57.408 1680.93 51.135C1680.93 44.862 1686.01 39.778 1692.28 39.778ZM1692.28 61.836C1694.13 61.836 1695.89 61.385 1697.41 60.565V53.841C1696.42 55.645 1694.5 56.916 1692.28 56.916C1689.08 56.916 1686.5 54.333 1686.5 51.135C1686.5 47.937 1689.08 45.354 1692.28 45.354C1694.5 45.354 1696.42 46.625 1697.41 48.47V41.746C1695.89 40.926 1694.13 40.434 1692.28 40.434C1686.38 40.434 1681.58 45.231 1681.58 51.135C1681.58 57.039 1686.38 61.836 1692.28 61.836ZM1692.28 56.26C1695.15 56.26 1697.41 53.964 1697.41 51.135C1697.41 48.306 1695.15 46.01 1692.28 46.01C1689.45 46.01 1687.16 48.306 1687.16 51.135C1687.16 53.964 1689.45 56.26 1692.28 56.26ZM1706.63 51.135C1706.63 44.862 1711.72 39.778 1717.99 39.778C1719.83 39.778 1721.56 40.229 1723.11 41.008V40.27H1723.77V41.377C1726.07 42.648 1727.83 44.944 1728.69 47.322V40.27H1729.35V60.155C1729.35 66.428 1724.3 71.512 1717.99 71.512C1714.09 71.512 1710.65 69.503 1708.56 66.51L1709.13 66.182C1711.1 69.011 1714.34 70.856 1717.99 70.856C1723.97 70.856 1728.69 66.1 1728.69 60.155V54.907C1727.87 57.285 1726.02 59.663 1723.69 60.934C1723.28 63.722 1720.94 65.936 1717.99 65.936C1716.14 65.936 1714.46 65.034 1713.4 63.722L1713.97 63.394C1714.87 64.501 1716.39 65.28 1717.99 65.28C1720.45 65.28 1722.46 63.599 1722.99 61.344C1721.47 62.041 1719.75 62.492 1717.99 62.492C1711.72 62.492 1706.63 57.408 1706.63 51.135ZM1707.29 51.135C1707.29 57.039 1712.08 61.836 1717.99 61.836C1719.83 61.836 1721.56 61.385 1723.07 60.565C1723.11 60.278 1723.11 59.745 1723.11 59.212V53.841C1722.13 55.645 1720.2 56.916 1717.99 56.916C1714.79 56.916 1712.21 54.333 1712.21 51.135C1712.21 47.937 1714.79 45.354 1717.99 45.354C1720.2 45.354 1722.13 46.625 1723.11 48.47V41.746C1721.6 40.926 1719.83 40.434 1717.99 40.434C1712.08 40.434 1707.29 45.231 1707.29 51.135ZM1712.86 51.135C1712.86 53.964 1715.16 56.26 1717.99 56.26C1720.86 56.26 1723.11 53.964 1723.11 51.135C1723.11 48.306 1720.86 46.01 1717.99 46.01C1715.16 46.01 1712.86 48.306 1712.86 51.135ZM1723.77 42.115V60.155C1726.52 58.474 1728.69 55.071 1728.69 51.135C1728.69 47.199 1726.52 43.796 1723.77 42.115ZM1732.26 51.135C1732.26 44.862 1737.34 39.778 1743.61 39.778C1748.62 39.778 1752.84 42.976 1754.36 47.486L1741.03 55.563C1741.81 56.014 1742.67 56.26 1743.61 56.26C1745.66 56.26 1747.43 55.03 1748.25 53.308L1748.86 53.595C1747.96 55.563 1745.95 56.916 1743.61 56.916C1742.42 56.916 1741.32 56.547 1740.42 55.932L1735.99 58.638C1737.91 60.606 1740.62 61.836 1743.61 61.836C1747.88 61.836 1751.61 59.294 1753.33 55.645L1753.9 55.932C1752.1 59.827 1748.16 62.492 1743.61 62.492C1737.34 62.492 1732.26 57.408 1732.26 51.135ZM1732.91 51.135C1732.91 52.324 1733.12 53.431 1733.45 54.497L1737.87 51.791C1737.83 51.586 1737.83 51.34 1737.83 51.135C1737.83 47.937 1740.42 45.354 1743.61 45.354C1744.8 45.354 1745.95 45.723 1746.85 46.338L1751.24 43.673C1749.31 41.664 1746.61 40.434 1743.61 40.434C1737.71 40.434 1732.91 45.231 1732.91 51.135ZM1733.69 55.112C1734.14 56.219 1734.76 57.244 1735.54 58.146L1739.84 55.522C1738.94 54.743 1738.28 53.677 1738 52.488L1733.69 55.112ZM1738.49 51.135V51.422L1746.24 46.707C1745.46 46.256 1744.56 46.01 1743.61 46.01C1740.78 46.01 1738.49 48.306 1738.49 51.135ZM1738.57 52.16C1738.82 53.349 1739.51 54.415 1740.46 55.153L1748.66 50.151C1748.41 48.962 1747.75 47.896 1746.81 47.117L1738.57 52.16ZM1747.43 46.789C1748.33 47.568 1748.98 48.593 1749.23 49.823L1753.58 47.158C1753.13 46.051 1752.47 45.067 1751.73 44.165L1747.43 46.789ZM1756.35 62V40.27H1757V45.969C1757.91 43.714 1759.71 41.869 1761.92 40.885V40.27H1762.58V40.639C1763.52 40.311 1764.59 40.106 1765.66 40.106C1768.03 40.106 1770.21 41.008 1771.85 42.484C1773.49 41.008 1775.66 40.106 1778.04 40.106C1783.16 40.106 1787.34 44.288 1787.34 49.413V62H1786.69V49.413C1786.69 44.657 1782.79 40.762 1778.04 40.762C1775.86 40.762 1773.86 41.582 1772.34 42.935C1773.57 44.206 1774.43 45.805 1774.8 47.609C1775.41 46.461 1776.64 45.682 1778.04 45.682C1780.09 45.682 1781.77 47.363 1781.77 49.413V62H1781.11V49.413C1781.11 47.732 1779.72 46.338 1778.04 46.338C1776.36 46.338 1774.96 47.732 1774.96 49.413V62H1774.31V49.413C1774.31 47.076 1773.36 44.944 1771.85 43.386C1770.33 44.944 1769.39 47.076 1769.39 49.413V62H1768.73V49.413C1768.73 47.732 1767.34 46.338 1765.66 46.338C1763.97 46.338 1762.58 47.732 1762.58 49.413V62H1761.92V41.623C1759.01 43.017 1757 46.01 1757 49.413V62H1756.35ZM1762.58 41.336V47.322C1763.24 46.338 1764.38 45.682 1765.66 45.682C1767.05 45.682 1768.28 46.461 1768.89 47.609C1769.26 45.805 1770.12 44.206 1771.35 42.935C1769.84 41.582 1767.83 40.762 1765.66 40.762C1764.59 40.762 1763.52 40.967 1762.58 41.336ZM1789.99 51.135C1789.99 44.862 1795.08 39.778 1801.35 39.778C1806.35 39.778 1810.57 42.976 1812.09 47.486L1798.77 55.563C1799.55 56.014 1800.41 56.26 1801.35 56.26C1803.4 56.26 1805.16 55.03 1805.98 53.308L1806.6 53.595C1805.7 55.563 1803.69 56.916 1801.35 56.916C1800.16 56.916 1799.05 56.547 1798.15 55.932L1793.72 58.638C1795.65 60.606 1798.36 61.836 1801.35 61.836C1805.61 61.836 1809.34 59.294 1811.07 55.645L1811.64 55.932C1809.84 59.827 1805.9 62.492 1801.35 62.492C1795.08 62.492 1789.99 57.408 1789.99 51.135ZM1790.65 51.135C1790.65 52.324 1790.85 53.431 1791.18 54.497L1795.61 51.791C1795.57 51.586 1795.57 51.34 1795.57 51.135C1795.57 47.937 1798.15 45.354 1801.35 45.354C1802.54 45.354 1803.69 45.723 1804.59 46.338L1808.98 43.673C1807.05 41.664 1804.34 40.434 1801.35 40.434C1795.45 40.434 1790.65 45.231 1790.65 51.135ZM1791.43 55.112C1791.88 56.219 1792.49 57.244 1793.27 58.146L1797.58 55.522C1796.68 54.743 1796.02 53.677 1795.73 52.488L1791.43 55.112ZM1796.22 51.135V51.422L1803.97 46.707C1803.19 46.256 1802.29 46.01 1801.35 46.01C1798.52 46.01 1796.22 48.306 1796.22 51.135ZM1796.31 52.16C1796.55 53.349 1797.25 54.415 1798.19 55.153L1806.39 50.151C1806.15 48.962 1805.49 47.896 1804.55 47.117L1796.31 52.16ZM1805.16 46.789C1806.06 47.568 1806.72 48.593 1806.97 49.823L1811.31 47.158C1810.86 46.051 1810.21 45.067 1809.47 44.165L1805.16 46.789ZM1814.08 62V40.27H1814.74V46.461C1815.64 44.124 1817.41 42.197 1819.66 41.09V40.27H1820.32V40.762C1821.46 40.311 1822.69 40.065 1824.01 40.065C1829.46 40.065 1833.93 44.534 1833.93 49.987V62H1833.27V49.987C1833.27 44.903 1829.09 40.721 1824.01 40.721C1822.69 40.721 1821.46 41.008 1820.32 41.5V47.691C1821.1 46.461 1822.45 45.641 1824.01 45.641C1826.38 45.641 1828.35 47.609 1828.35 49.987V62H1827.7V49.987C1827.7 47.978 1826.02 46.297 1824.01 46.297C1822 46.297 1820.32 47.978 1820.32 49.987V62H1819.66V41.828C1816.75 43.386 1814.74 46.461 1814.74 49.987V62H1814.08ZM1839.44 40.926H1836.2V40.27H1839.44V33.3H1840.09V40.27H1845.01V33.3H1845.67V40.27H1848.91V40.926H1845.67V45.846H1848.91V46.502H1845.67V62H1845.01V46.502H1840.09V62H1839.44V46.502H1836.2V45.846H1839.44V40.926ZM1845.01 40.926H1840.09V45.846H1845.01V40.926ZM1867.25 61.344H1878.12V62H1861.02V33.3H1878.12V33.956H1867.25V38.876H1878.12V39.532H1867.25V44.534H1875.17V45.19H1867.25V50.11H1875.17V50.766H1867.25V55.768H1878.12V56.424H1867.25V61.344ZM1861.68 39.532V44.534H1866.6V39.532H1861.68ZM1866.6 56.424H1861.68V61.344H1866.6V56.424ZM1866.6 33.956H1861.68V38.876H1866.6V33.956ZM1866.6 45.19H1861.68V50.11H1866.6V45.19ZM1861.68 50.766V55.768H1866.6V50.766H1861.68ZM1886.71 40.27L1890.28 45.682L1893.89 40.27H1894.71L1890.69 46.297L1893.48 50.52L1900.28 40.27H1901.1L1893.89 51.135L1901.1 62H1900.28L1893.48 51.75L1890.69 55.973L1894.71 62H1893.89L1890.32 56.588L1886.71 62H1885.89L1889.91 55.973L1887.08 51.75L1880.32 62H1879.5L1886.67 51.135L1879.5 40.27H1880.32L1887.08 50.52L1889.87 46.297L1885.89 40.27H1886.71ZM1890.28 55.358L1893.07 51.135L1890.28 46.912L1887.49 51.135L1890.28 55.358ZM1900.62 51.135C1900.62 44.862 1905.7 39.778 1911.98 39.778C1916.98 39.778 1921.2 42.976 1922.72 47.486L1909.39 55.563C1910.17 56.014 1911.03 56.26 1911.98 56.26C1914.03 56.26 1915.79 55.03 1916.61 53.308L1917.23 53.595C1916.32 55.563 1914.31 56.916 1911.98 56.916C1910.79 56.916 1909.68 56.547 1908.78 55.932L1904.35 58.638C1906.28 60.606 1908.98 61.836 1911.98 61.836C1916.24 61.836 1919.97 59.294 1921.69 55.645L1922.27 55.932C1920.46 59.827 1916.53 62.492 1911.98 62.492C1905.7 62.492 1900.62 57.408 1900.62 51.135ZM1901.28 51.135C1901.28 52.324 1901.48 53.431 1901.81 54.497L1906.24 51.791C1906.2 51.586 1906.2 51.34 1906.2 51.135C1906.2 47.937 1908.78 45.354 1911.98 45.354C1913.17 45.354 1914.31 45.723 1915.22 46.338L1919.6 43.673C1917.68 41.664 1914.97 40.434 1911.98 40.434C1906.07 40.434 1901.28 45.231 1901.28 51.135ZM1902.06 55.112C1902.51 56.219 1903.12 57.244 1903.9 58.146L1908.21 55.522C1907.3 54.743 1906.65 53.677 1906.36 52.488L1902.06 55.112ZM1906.85 51.135V51.422L1914.6 46.707C1913.82 46.256 1912.92 46.01 1911.98 46.01C1909.15 46.01 1906.85 48.306 1906.85 51.135ZM1906.93 52.16C1907.18 53.349 1907.88 54.415 1908.82 55.153L1917.02 50.151C1916.77 48.962 1916.12 47.896 1915.18 47.117L1906.93 52.16ZM1915.79 46.789C1916.69 47.568 1917.35 48.593 1917.59 49.823L1921.94 47.158C1921.49 46.051 1920.83 45.067 1920.1 44.165L1915.79 46.789ZM1930.29 62V42.689C1928.07 44.042 1925.37 46.83 1925.37 51.709V62H1924.71V40.27H1925.37V47.732C1926.39 44.903 1927.99 43.304 1930.29 41.951V40.27H1930.94V41.582C1932.58 40.762 1934.35 40.352 1936.07 40.352V41.008C1934.35 41.008 1932.54 41.459 1930.94 42.32V49.044C1931.89 47.199 1933.86 45.928 1936.07 45.928V46.584C1933.2 46.584 1930.94 48.88 1930.94 51.709V62H1930.29ZM1948.95 45.846V46.502H1947.76C1945.26 46.502 1943.13 48.634 1943.13 51.135C1943.13 53.636 1945.26 55.768 1947.76 55.768H1948.95V56.424H1947.76C1944.89 56.424 1942.47 54.005 1942.47 51.135C1942.47 48.265 1944.89 45.846 1947.76 45.846H1948.95ZM1948.95 40.926H1947.76C1942.14 40.926 1937.55 45.518 1937.55 51.135C1937.55 56.752 1942.14 61.344 1947.76 61.344H1948.95V62H1947.76C1941.78 62 1936.9 57.121 1936.9 51.135C1936.9 45.149 1941.78 40.27 1947.76 40.27H1948.95V40.926ZM1952.42 62V40.27H1953.08V62H1952.42ZM1958.65 40.27V62H1958V40.27H1958.65ZM1958 38.138V31.25H1958.65V38.138H1958ZM1953.08 31.25V38.138H1952.42V31.25H1953.08ZM1961.85 46.953C1961.85 42.976 1965.04 39.778 1969.02 39.778C1971.97 39.778 1974.51 41.582 1975.62 44.124L1975.01 44.411C1974.02 42.074 1971.69 40.434 1969.02 40.434C1965.41 40.434 1962.5 43.345 1962.5 46.953C1962.5 50.028 1964.59 52.57 1967.46 53.308L1969.27 53.759C1969.96 53.923 1970.46 54.579 1970.46 55.317C1970.46 56.219 1969.76 56.916 1968.86 56.916C1968.16 56.916 1967.59 56.506 1967.34 55.85L1967.95 55.604C1968.08 55.973 1968.41 56.26 1968.86 56.26C1969.39 56.26 1969.8 55.85 1969.8 55.317C1969.8 54.866 1969.55 54.497 1969.1 54.374L1967.26 53.923C1964.14 53.144 1961.85 50.315 1961.85 46.953ZM1962.26 58.187L1962.87 57.9C1963.85 60.237 1966.15 61.836 1968.86 61.836C1972.46 61.836 1975.38 58.925 1975.38 55.317C1975.38 52.242 1973.28 49.7 1970.41 48.962L1968.61 48.511C1967.87 48.306 1967.42 47.691 1967.42 46.953C1967.42 46.051 1968.12 45.354 1969.02 45.354C1969.72 45.354 1970.29 45.805 1970.5 46.42L1969.92 46.666C1969.8 46.297 1969.43 46.01 1969.02 46.01C1968.49 46.01 1968.08 46.42 1968.08 46.953C1968.08 47.404 1968.32 47.773 1968.77 47.896L1970.62 48.347C1973.78 49.126 1976.03 51.955 1976.03 55.317C1976.03 59.294 1972.83 62.492 1968.86 62.492C1965.9 62.492 1963.36 60.729 1962.26 58.187ZM1978.02 51.135C1978.02 44.862 1983.1 39.778 1989.37 39.778C1994.37 39.778 1998.6 42.976 2000.11 47.486L1986.79 55.563C1987.57 56.014 1988.43 56.26 1989.37 56.26C1991.42 56.26 1993.19 55.03 1994.01 53.308L1994.62 53.595C1993.72 55.563 1991.71 56.916 1989.37 56.916C1988.18 56.916 1987.08 56.547 1986.17 55.932L1981.75 58.638C1983.67 60.606 1986.38 61.836 1989.37 61.836C1993.64 61.836 1997.37 59.294 1999.09 55.645L1999.66 55.932C1997.86 59.827 1993.92 62.492 1989.37 62.492C1983.1 62.492 1978.02 57.408 1978.02 51.135ZM1978.67 51.135C1978.67 52.324 1978.88 53.431 1979.2 54.497L1983.63 51.791C1983.59 51.586 1983.59 51.34 1983.59 51.135C1983.59 47.937 1986.17 45.354 1989.37 45.354C1990.56 45.354 1991.71 45.723 1992.61 46.338L1997 43.673C1995.07 41.664 1992.37 40.434 1989.37 40.434C1983.47 40.434 1978.67 45.231 1978.67 51.135ZM1979.45 55.112C1979.9 56.219 1980.52 57.244 1981.3 58.146L1985.6 55.522C1984.7 54.743 1984.04 53.677 1983.76 52.488L1979.45 55.112ZM1984.25 51.135V51.422L1992 46.707C1991.22 46.256 1990.32 46.01 1989.37 46.01C1986.54 46.01 1984.25 48.306 1984.25 51.135ZM1984.33 52.16C1984.58 53.349 1985.27 54.415 1986.22 55.153L1994.42 50.151C1994.17 48.962 1993.51 47.896 1992.57 47.117L1984.33 52.16ZM1993.19 46.789C1994.09 47.568 1994.74 48.593 1994.99 49.823L1999.34 47.158C1998.88 46.051 1998.23 45.067 1997.49 44.165L1993.19 46.789Z" fill="white"/>
</g>
<defs>
<clipPath id="clip0_443_857">
<rect width="1940" height="343" fill="white"/>
</clipPath>
</defs>
</svg>
